<mxfile modified="2021-02-22T12:17:08.152Z" host="app.diagrams.net" agent="5.0 (Macintosh; Intel Mac OS X 10_15_7) AppleWebKit/537.36 (KHTML, like Gecko) Chrome/88.0.4324.182 Safari/537.36" etag="GhvKm5Recg41phsjucVq" version="14.4.2" type="github">
  <diagram id="Ht1M8jgEwFfnCIfOTk4-" name="Page-1">
    <mxGraphModel dx="2595" dy="754" grid="1" gridSize="10" guides="1" tooltips="1" connect="1" arrows="1" fold="1" page="1" pageScale="1" pageWidth="1169" pageHeight="827" math="0" shadow="0">
      <root>
        <mxCell id="0" />
        <mxCell id="1" parent="0" />
        <object label="" id="ezOrrWx1QWAtPi0Ws5CB-157">
          <mxCell style="shape=mxgraph.mockup.containers.marginRect;rectMarginTop=10;strokeColor=#0e8088;strokeWidth=1;dashed=0;rounded=1;arcSize=5;recursiveResize=0;fillColor=#b0e3e6;" parent="1" vertex="1">
            <mxGeometry x="-50" y="25" width="600" height="655" as="geometry" />
          </mxCell>
        </object>
        <mxCell id="ezOrrWx1QWAtPi0Ws5CB-158" value="Podmgr Agent Configuration" style="shape=rect;strokeColor=#B20000;fillColor=#e51400;strokeWidth=1;dashed=0;rounded=1;arcSize=20;fontColor=#ffffff;fontSize=17;spacing=2;spacingTop=-2;align=left;autosize=1;spacingLeft=4;resizeWidth=0;resizeHeight=0;perimeter=none;" parent="ezOrrWx1QWAtPi0Ws5CB-157" vertex="1">
          <mxGeometry x="5" width="240" height="30" as="geometry" />
        </mxCell>
        <object label="" id="bDfId1kQ4imyyXlbz6ZG-4">
          <mxCell style="shape=mxgraph.mockup.containers.marginRect;rectMarginTop=10;strokeColor=#666666;strokeWidth=1;dashed=0;rounded=1;arcSize=5;recursiveResize=0;" vertex="1" parent="ezOrrWx1QWAtPi0Ws5CB-157">
            <mxGeometry x="50" y="60" width="240" height="550" as="geometry" />
          </mxCell>
        </object>
        <mxCell id="bDfId1kQ4imyyXlbz6ZG-5" value="TST_PODMGR_DYNGRP" style="shape=rect;strokeColor=#3A5431;fillColor=#6d8764;strokeWidth=1;dashed=0;rounded=1;arcSize=20;fontColor=#ffffff;fontSize=17;spacing=2;spacingTop=-2;align=left;autosize=1;spacingLeft=4;resizeWidth=0;resizeHeight=0;perimeter=none;" vertex="1" parent="bDfId1kQ4imyyXlbz6ZG-4">
          <mxGeometry x="5" width="220" height="30" as="geometry" />
        </mxCell>
        <mxCell id="ezOrrWx1QWAtPi0Ws5CB-172" value="" style="group" parent="bDfId1kQ4imyyXlbz6ZG-4" vertex="1" connectable="0">
          <mxGeometry x="20" y="54" width="140" height="130" as="geometry" />
        </mxCell>
        <mxCell id="ezOrrWx1QWAtPi0Ws5CB-173" value="" style="outlineConnect=0;dashed=0;verticalLabelPosition=bottom;verticalAlign=top;align=center;html=1;shape=mxgraph.aws3.instance;fillColor=#14EDF5;gradientColor=none;" parent="ezOrrWx1QWAtPi0Ws5CB-172" vertex="1">
          <mxGeometry x="20" y="10" width="120" height="120" as="geometry" />
        </mxCell>
        <mxCell id="ezOrrWx1QWAtPi0Ws5CB-174" value="" style="aspect=fixed;html=1;points=[];align=center;image;fontSize=12;image=img/lib/mscae/Container_Instances.svg;" parent="ezOrrWx1QWAtPi0Ws5CB-172" vertex="1">
          <mxGeometry x="35" y="33.5" width="50" height="50" as="geometry" />
        </mxCell>
        <mxCell id="ezOrrWx1QWAtPi0Ws5CB-175" value="" style="aspect=fixed;pointerEvents=1;shadow=0;dashed=0;html=1;strokeColor=#3A5431;labelPosition=center;verticalLabelPosition=bottom;verticalAlign=top;align=center;fillColor=#6d8764;shape=mxgraph.mscae.enterprise.document;fontColor=#ffffff;" parent="ezOrrWx1QWAtPi0Ws5CB-172" vertex="1">
          <mxGeometry x="85" y="60" width="24" height="30" as="geometry" />
        </mxCell>
        <mxCell id="ezOrrWx1QWAtPi0Ws5CB-177" value="VM3" style="shape=rect;strokeColor=none;fillColor=#008cff;strokeWidth=1;dashed=0;rounded=1;arcSize=20;fontColor=#ffffff;fontSize=17;spacing=2;spacingTop=-2;align=left;autosize=1;spacingLeft=4;resizeWidth=0;resizeHeight=0;perimeter=none;" parent="ezOrrWx1QWAtPi0Ws5CB-172" vertex="1">
          <mxGeometry width="60" height="30" as="geometry" />
        </mxCell>
        <mxCell id="bDfId1kQ4imyyXlbz6ZG-3" value="" style="shape=image;verticalLabelPosition=bottom;verticalAlign=top;imageAspect=0;image=data:image/png,iVBORw0KGgoAAAANSUhEUgAAAG0AAABfCAYAAADiSknwAAABRWlDQ1BJQ0MgUHJvZmlsZQAAKJFjYGASSSwoyGFhYGDIzSspCnJ3UoiIjFJgf8rAxCDEwMXAy8CdmFxc4BgQ4ANUwgCjUcG3awyMIPqyLsgs9UJZ50vu6sKJPV9q4tsvvMVUjwK4UlKLk4H0HyBOSy4oKmFgYEwBspXLSwpA7A4gW6QI6Cggew6InQ5hbwCxkyDsI2A1IUHOQPYNIFsgOSMRaAbjCyBbJwlJPB2JDbUXBHhcXH18FAKMTAzNPQg4l3RQklpRAqKd8wsqizLTM0oUHIGhlKrgmZesp6NgZGBkyMAACnOI6s83wGHJKMaBEEt5ysBgnAsU1ECIZQkwMOz+xsAguBUhpv4Q6K25DAwHAgoSixLhDmD8xlKcZmwEYXNvZ2Bgnfb//+dwBgZ2TQaGv9f///+9/f//v8sYGJhvAfV+AwDni191Ub58XgAAAFZlWElmTU0AKgAAAAgAAYdpAAQAAAABAAAAGgAAAAAAA5KGAAcAAAASAAAARKACAAQAAAABAAAAbaADAAQAAAABAAAAXwAAAABBU0NJSQAAAFNjcmVlbnNob3T9FKyGAAAB1WlUWHRYTUw6Y29tLmFkb2JlLnhtcAAAAAAAPHg6eG1wbWV0YSB4bWxuczp4PSJhZG9iZTpuczptZXRhLyIgeDp4bXB0az0iWE1QIENvcmUgNS40LjAiPgogICA8cmRmOlJERiB4bWxuczpyZGY9Imh0dHA6Ly93d3cudzMub3JnLzE5OTkvMDIvMjItcmRmLXN5bnRheC1ucyMiPgogICAgICA8cmRmOkRlc2NyaXB0aW9uIHJkZjphYm91dD0iIgogICAgICAgICAgICB4bWxuczpleGlmPSJodHRwOi8vbnMuYWRvYmUuY29tL2V4aWYvMS4wLyI+CiAgICAgICAgIDxleGlmOlBpeGVsWERpbWVuc2lvbj4xMDk8L2V4aWY6UGl4ZWxYRGltZW5zaW9uPgogICAgICAgICA8ZXhpZjpVc2VyQ29tbWVudD5TY3JlZW5zaG90PC9leGlmOlVzZXJDb21tZW50PgogICAgICAgICA8ZXhpZjpQaXhlbFlEaW1lbnNpb24+OTU8L2V4aWY6UGl4ZWxZRGltZW5zaW9uPgogICAgICA8L3JkZjpEZXNjcmlwdGlvbj4KICAgPC9yZGY6UkRGPgo8L3g6eG1wbWV0YT4Kv1NaEwAAIAJJREFUeAHtXQeYVdW1/m+duVOBAYYqHRRQREnsDRQRjUYksUUTsYvCg1ieNcbPEqOmqHlG8+KXRH3mafISoxERosSoWLGAQZQOwjC93bn9nvf/+9wzHZiBmTsDzoZzT9t7n73Xv9faa61dxmUxoCfsUxRw71Ol7SmsoUAPaPtgQ+gBrQe0fZAC+2CRezitB7SdU6BeRTXKahJx8IkeJnjwnOBPNHULK8lnulM8OxpPPSFFAVd6VX4BZREKC5bLzbMdvLxyCUCLjO9yIe7iibcSAy6DrO56gkOB9IEm7iE4NS4vqni5fnMlkskkBubmoV9fLzKJi48A+QyULnKeLbk9qXsbRqfYX+9zGkGzUGO58I+t1VhfHEPQ8iJIQNyJCPLdcQzNACb2740xhQECGCOHeYmMhxxpA9TDaw0NNW2gxSn+lm0N4q2KEJIxPzxWHDH2Wx7KwhDfJS3ylhXD0GwfjhpeiIPzPfC72KORMyU5e0DrAtAqYsD/rClBVZSaR9KHGAVgnP2bS7cUk4kkYeE5xs7NnYhiTF4Ozjy0HwpddewGswzHuXkt7oNFtvwao5g2lT8SiyOSoPLh9hm+MYpHK5T3kiVjlh8fVwbxxL++xDubpEnG2MMl+I/g4esNmPgtbaDFExZCPBIuqhbUEO2PS/A1DWFPku8tBOJ+VIYy8NyaHXh6ZRG+irrBV+RMKTQt0zXNZf++Sxtobo8LGV43XEkZZk5oKeNyKCIDiRjC/jiCZMo4xeGyHR488eZ6rK+W7UaTwdFOnGy+Zue0gZbh9SLDI5VeCoe4hV1YK8QOu72IerzwU0HJIIBxdxKZVhhFEeCX727C39ZVIRbr4bRWSNfxj3K9JL7bhYiVi6x4DFFXBsVgS9jU1+mw7B94k2xXwojGeCjuxeLV2/Hoxztg1YQJP0VuCnqbf5WfnaeS6NgfQ9o4zed2ozDDA487ijDFpLwg3jaKORfjSpBKwYyTV9d/VYob39qONaVBBCyyINHxEEI72CK3peDdf+BLG2gi4qSBeTScowhRg5Sd5m4jaEJFIlXMF3d7EHFnoiQcwa/e2YJX1hA0mhM2h6k6DXA1XOn9/hPSBpq4oTATGBCQN9FL0NhfUeS1LYj8BI7cZF/RP0mOC8dieG7lNtz5j02oiHkRp2RM0vZrmEHRUvy27XvdO1Zbqbb3tSC1MynKhvXpxX6KBjJFXltBE1wK4jYPPSfyTObE4wjTZgt5XdhcVYk7X1iF9Rs2sC9ko0iNJJhE++FP2txYNu2SKI658aeVpSgmcFYyakZhGntE4gQmmaRar4N2nQBIUIs0Z14nZaexc1M8YaN4emfxXFsXxVnj8jB78iDkZrrJm34CzEEgusLEc2oq8rrYErSV9sqGxWxs7wujunSjUQeegnUR1NXWmhEIfyATfQPZ7J+Vqcpj5xVzSztmJoxvf4PnTghpBs0iCV1YUWXhlS9LOH7mhZuaZEeBZiVrsSOaify6Ejx44VSMyLZQRcrmC7E4FRX6oEPsEwNGaSHQKQ5uGFGgW40lRDJMonuxMZiJl1/6J95YtgKlJRE2DjkGwsQxjoK8DFx+6SycdMxB8Akk5imngYt5SoR3ZkgvaKZycVSSes9/VopNIdKGYk5ckpBSIrtsLzgtSqK6kxGU1SVRUbIVMw8uxBVHTMTgvgESWtoKuY9xNF7nZVnMWJ3EqaFwDLX0iX76RQ2WvrkSqz5bh5ItxewnlY7cb8Q5rX02AHFTgqLZ6wni5KNH4o4F58HtokJEzhbs+yFobPGs1UeVwKtfFKM2QYWeoBkvx16C5o9HUePOIvGiqKqpxCcVCYxMVuLE8aMw7aChGJbvRk6WG1m0EUX9SCyBsrCFIvo531hbhU+Xv4eidVvgoeNFpI/RsLehlfijG43myrSjx6JPXm88v2QVYgkvuawCV140DRedNYVxnBEJNYPOgy6tnGa3aFaH4idItf2ldXVYVVzdYaBVejzIidWRC7wIxykEy77CymAd/ZVumhpeZNNm8NMr46aR76UTOs7Oqprv6igRB2xYQxBtbgT9o+Ior+n/qPi4ZQMmMLgggD8/soD3Sdz15Bt4efF7lBI+HNAf+M39l6NXTg4rp1rqaKXP5NOOCJ47GToio7bkobZn2h8J6Od1v2w3Piyp4piaxqc1R8RHDTFGESYNkFVPoWxrgzYpzDXfK76CE0e3Xvo11U+ZnoVKjjdAsUhOjoWDjMhRAr6PUpGJRWOooYyM0kbIqapGYOtmuGIc22N+VI+Mhipj3UWPDaUng348iEbCyM7LQxHHmZ574Q2Eo+QsfjcUomitCeGQCaPZKDiAK9D3F05T9RsHTdrZWGHhV19WIidSSxEZRx1yOJ4WtrmvndqjrVEKTPY5BEQEjfLYur0IwYiczezzOA/FDPKQy/zVNYiVFMEvM6INhn6S/ZjbWPg1SHqy2SDYSLxUWugvdbMRTBxVgOvnn83R93x4bbQbV7fDrjuPh9tQRCkDo3MjOCQnjFr2M3V0b3k4ALq3QdzoqANUOzBkYCEyfSQsvyct3scfT3U1rJJiBHTNZ8a+k1KyiwNUNtSs4j7OZCEXJn0kX5J9aDybWn8An2+owE03/Rbr1haZKjgSYm/r0zx9Wvu05h9XvxFy18EbDeDOT7bCV+5HVRYHPMkFe2KnOZwmDtMhOy9B7pU5XkM7q6SozAhPX1k54hVlyKCoFLi26s8Euwm2nin7z0Iv9nMTxo/E6DH9MGxIHgr758Hv95JjfRhZ2Au5AXUAnRO6FDSLHhJXMgNBGqjV1S6cu2wlJmcVwMf7hDRK9v8WTQAZ11IFLJ53ZVy3BhqtQGNOCMSa8iqUf7UNmV9xlEA5Ss5wgpEupMS3HtSf2YBKMrqJxRGHj8Ntc05FYW6QbwhUkv45yXqGJLMz3jlxeyeJyC4FTZUUqTysoIi4tNaDn/59FQbkeJEfyKWopNlL5EKaD0niywg3HhABysNwkznzmufWQDOcpvT0WsQrq7Fx1SpksH/zkcvpnDHBz+vmLjUNDbl4WAI1GWcfxel++X7aZBdh/KhsZHlYcnKVCUZZsS/T8Zsqdjo+1fo3SC8GCinaWCfkujDzkMF4vwL4ooKDnYlaaFBUoHqoKNijAhJPbS+2FAe1+DpqftvKy+Hu1Ztfs3U7w0P8MXOKmp3FfUkBzT42GYpjdIEbP/vxeZg41o8MjlTYbErclEmag2RDF4YklXxVnOLJm2XMgMvG98GnxUEs2lyD7bUhDM3zYVhASgTnSBIAcZ8U6qghfduKLuFWXFxCCUawycHuAJUQ+ikNvfljCK8bsS6Dh280pS8cDCFUUYmxQzx4/P4fIy9T79VgeOhSJoHJJb3Idbl4TNW+vkfx0PBeHcnAZS98jC+jfvSO0zbiW3XsfbOykasBVPoR1ee1RTxGqPpv2bLVTFGQWq9JQxm1VUA5gWMeorlAklqZTMQRDYURDVNDpE80QS47duIwPHz3peibx77L1Ui5YD4N4WsEmtP126POqjiFJV1DcermT31ZhvuXb+I0cnIVvQ5uTvbJJ5flMk6fzADyMuRWIgeS4Eb/Iw1j7PPYCgmmDWiM4BbtqECwhgqDPsa8+IbcGkFsa5EBP8k+MxHmaLoMcHlEDLcpVy/693XjyYeuxIQDBprEFh3F9tfEYeI28bx5ZZ/T9NsNOK1pTUVUkYYmKy5bvAXLt5XwjoYyiW6mJ2hoxhjD6ucsjtHR7iKH+L00nOnG8kl14zM3AayqrERdOcFgEGMIIIMJz56SMgSLtlHsKh/2XRR19HkwDgU2RwKyA0k8+9itmDBcXhpxGBFnHFs8KseuC13cp7WsuMjio20Vp/Jw1oF98NHWMEKuSpJMnNgQ5FP30B0WJdFdJLo7xtYfIdcwrYv2mY/chcpa8oOti8uwFhcqlzhx9dJPqAaie3q6zDlKU8PFgZtsVOPaS2Zi3LBMppc/UhEUWxYfE3dx6PoSNCOA6V84VzxAAp82MBuZ+c5oV9OIGQTDS4J61RtyAYfxRZIDvVRYXKEgYpUVnD+p0XHDeOYscBJ0FkuoJXwkPz0b8oZIcgoS9W5uK4gZUyfjsu9O5VoCPrMCJgMb3pSK37Qoab/rdqDZFGCxyEW9SeSLxxcQnlTf0Yg8EmbiC6l+GkHxEmT1RJ66MNwV1eRWilgmEyiNg81x5DaKU5cZehaQVEIYyZfwoV8giBuvm8X8BKUNksX3/JIRsY3z6qrrbgeaTWM3+zResXSnFGS3Sq0oQdXkHhoCIqcB0BvmSpzKGiottmsqTq4SSDoEnmw9o0EqtgzulDfeTXssyb6wT4YXj//8dhT2Flh2z8EkDAKQsJpr3Xdt6HagGXKIe6gUiEgF2RnISXFEY1LZJrYg40F13U0vR3RHidEIDd9QtHmlxjMP+7CB1ZSAJAGX3mlxUlCMI9pu9oM+DuWcMWMSDjtwAN9wHnQKIJ3stXLdh1TdpyQpRNSNKJg12bzhQDMC7HuaB40QKIibXBwfs4rLDMgSc7vz+bnomjI6KhuDYJeL8LgpozH/2plMzRz4X8K3u4ZuB5ojguyGzoFKsklUk3KaBYk7cZKbfViI6rtXkx5TQDaL2uJWGmGSHaEWN/q49q13IAM3zT0X+T5+x2k1PaC1oNtOH9gcJhVAjlqglMM0QXonmoeYUKWbKVlUikyq+OS15lF2fq+0agfULjNdNfj1rxbgoOF5FJO5BJ7ai5kb0lL52XmG6X3T7ThNfZV2OfBShMVIt3U0jqXYy26TV159jYxsF4dZInQqO9qhBi9bC246d2U8G9OZopSmtAHGcrFZxCtx1cXTMXkkezgnfX029RetZdulz7qdca3pADES2kw0JTc8tnITCc6exxjGVAnIHQILdCZr4o1FIDRMIw2xtRAhOLL5fOwlNdHAzzRRrpXz1kZwxrRDcO0PpttitQlG3a4tN6latyudOMlHIvvpOF62I4F/V3FRPUHLJHf5I1wCTIXDHZSTyw67G9LXOIIml2o6ubgtRpD97ggOH+TGT+Z9h56pEJcLO7ntG+dux2ma06EJNC72ZY9/thV+jqnJnRGq5QYWVTXI5HNxlXQ70doWazuneob8jfQZRlxZdHl5kMHpDacdOgI3X3gEJ5uyhbgCBFF9ZksNtbtC2O1Ak4ejhtR66LMKrODUgAjv4xW19MSHOQnHVu5kdxnE2kBV9Xmaai+/YyEn5XzrqCFYeO5xCGiSjpkXIC1UykcbMusmUdIHmphBWjnpI5pLedMj296ynbpxKh/V9LD/9pNt+M3qMkTqQsit4IpPElyWlWZAJaiSy7uv4CghulaeGdQik5xwo8X4UR4Wr710Tbk5hNOHgN1y3gk4c3I/RhafZkglsUMKPOe2u5/TBxqpGqMXXfBkEgBDcCLICb4E0M0+zI2tnKT46Aer8VfO8y8KejGYjt+w3jOSPeF61+QM0p+osTl5SDKpcHg5twPuMI4cUYCrvj0Nk4b1Mv0XfcUmpE424rvOulu9TR9oZA4fdXaHYJoTI1tLC+cTEQvPlNTh9tc/5+RVao4CKR7hO9lfnCNieLINdKPm6Wez0CqWGD/g5Zz7uVOH4YKTJyCbi+3B2V9hzq/cd3qv1uucNtAsDrfE/WFCwGH7GBVwEnhTDadXr92GF9dVonR7CMVWLQq4SsVLMVdCrixnnPw4YeV2TBKnuwt+gh325iCQ48KcEw7E+UcWoH8+xSFDgmsHxN2ZhvvSVu3dFXmP3qet9HF29qu4H8h6Thr9rLIcb+4oxhLO42dXwxDn5E8q5NS9SzmxMJsO3P7kyjgnESa4UiXJMbJdMZuLaryXfeGBQ3JwysF98N0jx6FvPmeWGONN/Zc9hma2K6SzuL4v2yOSdX2itIEmsTiuTyY21kS4K0EFPqiSuKKg4iI9MhUXRripGiSRzakDIdpUCXJmltaUsX+SF0P9jwY65flIEMSIOxu9rDoM8wVx+uRRmHXSN7g0uKkKaKdqgEh5NNx1PfH3tARpmyMir0aY/yQeub8cwPkCJfQdbquLoYxTBTbX1GE7jeayIFdv1lAcchVLLKLVl/T0cw+SAGVb/5xsDlL6MKB3HoZyl7oCbnpW2IfikFqii0MrMGvT9pQU+066tIFmxJstqWSKmTEuzbmQMV0/XqUXJrDz4aXTj2lmhoK4xNY6mVHKV6gszRgZz40muPFu/w1pA00Dk9ynh+TXP2fqmxy5ChKB8koY5Z/vbSHm2HI+urToYCQn8Tl9iU0sYeJrd3ip97rdz0PaQDN0NAROUVTMY4xkwcYbwzk2R9nPU/EUzfHAm5jKRAsyGnonpydLpW5IuJ9edQhojbFw6PR1IaBT33SeO0R77AEonZA16Rz24sNitfqDF62w3u6GUPbi62lNquVWHVEX5eEc7a2A0x20N12T+HE6cesPIianrhOcSjqTbTqiwk7eXXF2czc91UkhoTXXKed1W8vixG8MmPJpT+gQ8fjW8rfxyqJXUFNbgyGDB2Phwh9yyrYtNJ9++mksX74cw4cPx4033tiesnW7uA7BN23ahAceeABebjx6++23o39/7knRxqDGq3xiXOyxYMECcz1t2jTMnj27jTlwZKTNMVMR1Sakt6mB7SgtxfW33ozXl71OhY4PeBw0bhwWLrie2qDUeBc++fxzvPTqEkyYeDBuYCK11HYHh3HZDhpdtshGZkXzoBmUbQkt09rGSZO0JLiaYkl5BV5YspiDsW4sYEMs4DN9xW6mTVI03KjgTgTmI+v0haVLuO4giYLCAZ0LmjFu+X2V4boF/4G33l1uJtoEApyKlpePwr79UtsxOORtKPdeXaUqrNPOcm4rQK2Vo81p+XG5NJ2DzpqGcT0HlNY+oGepghOzhjQ7i7uL5+3mNMNi/OhLixfj7XeWsxwW5s29FldeeSW3MOIW7OI4seEuKuCIGTPzl4Uzc/B3UkhH9pt2r9oytJa14pl+U99WDEUy5WgttnKxg1MWp881aZz0TqTWziyLHNn1fMzPtMirtXR6piKacu4swq6f7xFomtW75LWl5usDydrz5s6Fj7OAtfuAQj0BzF3LH6dypWVlZiFgL+6Ck82Fgs3Jq3gR+h/LuAJGXvz+/fqlgNFHGvKVYqBvhjnTuKqqitfcAysvl1tEmNmTDRGbXSl/pyxVnINSFwohi7v85HAZlLJvMN/thGGu266urDLlMaPpLNM2bm3BTUpM/H69+8DHfs40m1QDc75RxnLF+LcJcrPoK83SPniKtWeh3aDVcDR56Rv/xPr1G8xkXO0HtWjRIuNPzKV4PPHEE8wWEmZx307K5IA6Z84cfLF2Le69717MPuvsVmOvWLECcy7j8tmCvvjXG2+0GkeEefLJJ/FfTzyBOu6FpW0ssrKzcfkVV+Kayy9rNY0eKl1RURFuueUWvPvhCrN8V4LiqKOOxN1334MDBmkFaEN4hdLllltvtWc8c0o5h/1w3oUXsJHY4vLZp57ClEMPU6utT7SW9bvtttvw0WefGe7ycOHj1KnT8J97oZS1G7QytqzrF17PDcOokrBFr1m3Flddv9DI+IPGjMPU40+kvDaqSn3BdaF2JXFoOmxWSsSJMI9gxN4Lq3FkRwHWKpcY41YzThbjKr0ZxTbpNc7mweov1uO6/5hP8L+wP5Kil2Yl333/T/Dc88/j1488igPHjDHcafukuWiRc/X++3d/wMOPPorKGo7rsTyitRrUUjaO5afNwPyrr8E1BJ6CxTRKzcYMcoKRuEyuNRc5PMqFH9q+Qn19jJWS81qrUFW/ex58CH94+ilu8Mnlw4yjbkC60l9ffBH/fPttIyFTxW1c/d1etxs0r8+PQYMHoai41BYnFGu9+vQxoA2g6quKpyNIBG7fvgPfY0sv53a4OVxEP/mQSThlOiefMixdsgQfkUvVqE7/9pn4x+IlGH7AECPGtN/Ie+9/hAcffACRaBSDBg7AqadMx8QJE7FmzRqaLy9j27ZtuPf++9CPdTp31tlGqhwz5Qg89ODPsJ55PvLrx5iXCz+65VYU9JX+yC2jRo4y4BJT/O6pP+CJxx9nu3bhgKFD8K3Tz8CoESPxwQcfYulrr6FEYnVPA0VEu0IiGbfKqmusi6+4yho8cpR1+jnnWGU1VVZFdZVVEwzaeXH3Z4oo/rOshTffbA1hvOlnftuKcd8jJ3B3AmvaaadZA/nuf//yFxPXecc/HGTpsBh92dtvmziTjzyKz5SjyZyv4tbV8+cx79HWAaPHWK++vsxKML7e6hyJxKx33nnfGjphvDVg9Ehr7sKFlr6pn2AkZB18+OHWoBEjrelnfMvaUV5Rn7OiFBeXWqfOPN0aPGaUdczUk+zvmrT25999/wNrEMs9lN/esnGz/VG9t19boWjEmjB5sjV01Gjrgu//wCqrqmyIw3jbdxRbR5801Ro4ejRpONK69Ud32onb+Fuv/LQVdImPvNwcY1iKqbyU7X1y8tCLf7xO2qMJaeC2OFfJvEURI9a54aabMO2E42kDmlvD7V7OzJoy5TDctPAGGqNUnNgfhajUKP7Hn3yKMm4EQ4bA/Pnz0C8/T4/NQVDRl5xz7z13U6nwYdPmzdjIo7Escxw+0pyN6uUkTuXBhoZyLtL38C953HDDDaRPrhGP5gOM059m0dyrruLVnoX2g8aaOmVUpU0FdOEce1aOdqfaUbwD5WUV8GdmsmM/yWzUUldXBx1BKiPqRyLU9o478kjufOAzovzjjz825fzk008JMPcyZiM7mUqBRK0TJM7IFhgzejSk1ZIFsejVxWbNgEBS5dW3qm9UlbXovknVebPo5UV840J2dhbGH3gQL7Xww/6n9PyPGSef4nyy3ed292n6ojGweVbhVQD7py3fVru0CVQ/SJ1KZvJR7c3F7vOq49QETitBlNMSLr/0crPezBTIyUD5ML8EZ3dFqJTIphJ36QNSvbWkKpuanF8gkV8c41qSRIdMGDfVdy3rjXKxhhqn+VMqisnCK3ut8NHE2SZF5k2oto5pqXZQCpn8+cysBkpVS20kiw2Gn9mj0H7Q9ugznZSIBEtQnG3dtJmcoLWdLYO0TWltY6g9Tp92cpsbRcucus+TLgGN/S1JqSVK5DxygO53FmyPOuMzjlGZmVLB7KfFPNRif3jdfG5Ty51OW8lGU8mzMjJx2owZyMzQVIW2B5WycZBBLII5O+CZd02j1Ee360QeZhU5Q71J0DvjEOBTcbUte5pE2eVNl4Em2dCXHbLry7X4nE7lnYWNG2jEU57kUVmQcHXq369fX+N8jlNlP+n4EzBq7KhWvd+05owiYgNuJObOPrXb504eXu7SKmI7HqDmCceNHUs33yKE6WGp5chHDmeNNRaFSquRAtlyEpuHH66dxtse2guymniz3JvfO6+bPlfP4cgmp3VNmjTJRP7Tn/8PW7bZW8hKS3Omge8oKcEvH36YxEnQhpqQytjON58gjuWIQpT91S233Ypa7kdslAO+bnxWbIfYykDA20Hl4aFT017Jfq2n5p35Mc/sngxsbH3tFGxM/041OIezlOGsc2ab9xG61f720t/tz6SkiXKj1o/f/f73pl4Zfj9mnGrblvUf3s1F+0GrryA/b2rVFJz67+k1b+orTjHl/BUngSYQZ515Js8u48u74PsX0eDkRo9MpxZYWV2Jy+ZejeKyUvodgfMvOM+mb+oDEhGzZ80yu5i+8+F7uPLqa1DHv/SkkKKPfc1fM0M5ldquMEVyI1m6s02nTftUvFRcB7SBQwdhQGGhUV/uvv9+FHOoRqJTYlMVGDJ4IE6hdqg/VHvH3XfhxZdeMX+8SPPNYuwO7nvwQTz7/HMsZxwL5s/nDuOUH0zqeIJMwXfx027xqIo0qu9Os1Y8tWrT6pvFslslZxyPHYMHfnofbrvjDqzfsBFHHXscho8YQc3Lg40bN5jd4zJ8GZg3/1ocOeUbzEwdRKqdUQG59Hvfw+bNm/DMM89gOYeIJn/zmxgxcoTR/BwCZ2dl4LePP4Fs9msijMSUASNVNrYZPdap1WDD0JBG8US0++65h77NK7CBYu6IY481Xo8Lzj0Xl/7gErML643XL8CHKz5AeXkl5tHN99AjQ5BLE2I7fZ2llCAC6LBJk3E+05jAjNvKQe0GTS1K063Veg14pnXZ323tV3LfFEbeVQYBJk6zb5KYffZZeoqf/+JhbN+2neJmtaGgRr4HDhiAS+fMweVzLjHfrE+nxMzU7/HhLo4cF3C31Gf/+EcUkSs/XbmyIX9Gy8/JQpwqPuec24HFcDhe5VLxje+wOWwsp1HtU9zjcK9KrtWnJx53LH7x85/hrnvvRTF3HV/HvrmcoxYeOSopzscMH47XlryKS2iOrF69xjRK2XxKn5ObjeNPOAmPPfyL+j5ahdO7toR2g2YWAXIJ7VR2/r3zeuHAYaNa/Y4KIKXhuCOOMgQ/YOjQJsRUIikY2nngO2efg9OnzzCt9mVOWwjTczFzxmkYNXI4Cnr3VtSWFTI15IpqGsk/nDcPl1z8fXy5fj1eJaHM8EwqRQY1xkz2G4adiJKazqHjJ+LCc89HJo1uyS03d+5p/gF5M86aeTrKaqtxCEfdNehpWp/OPLx0v5w5cyaOOfpobOWK1fV0WI+h75HN2URUuQpy8/H8M09jK/2Yry97Exs2rMOUww7DEd/8BvqxX3TsXSZoV2j/vEfT5NgjsZ4q3m4/zAqqng5ztVo65akIqbNzW985tZLYNhpSuekDCq3EU6fvbDdRH43PtMWFcN9p+RnZWfChbUXqs1YiBeYhGiiXeulhCq53diTnuTjZfmVim+Tmpz7ThkdtuWo/aG3JtSdOp1LAdDed+oWezDucAj2gdThJOz/DHtA6n8Yd/oUe0DqcpJ2fYQ9onU/jDv9CD2gdTtLOz7AHtM6ncYd/oQe0Didp52fYA1rn07jDv/D/PF/WzJb8/+EAAAAASUVORK5CYII=" vertex="1" parent="ezOrrWx1QWAtPi0Ws5CB-172">
          <mxGeometry x="100" y="90" width="31" height="30" as="geometry" />
        </mxCell>
        <mxCell id="bDfId1kQ4imyyXlbz6ZG-6" value="" style="group" vertex="1" connectable="0" parent="bDfId1kQ4imyyXlbz6ZG-4">
          <mxGeometry x="20" y="400" width="140" height="130" as="geometry" />
        </mxCell>
        <mxCell id="bDfId1kQ4imyyXlbz6ZG-7" value="" style="outlineConnect=0;dashed=0;verticalLabelPosition=bottom;verticalAlign=top;align=center;html=1;shape=mxgraph.aws3.instance;fillColor=#14EDF5;gradientColor=none;" vertex="1" parent="bDfId1kQ4imyyXlbz6ZG-6">
          <mxGeometry x="20" y="10" width="120" height="120" as="geometry" />
        </mxCell>
        <mxCell id="bDfId1kQ4imyyXlbz6ZG-8" value="" style="aspect=fixed;html=1;points=[];align=center;image;fontSize=12;image=img/lib/mscae/Container_Instances.svg;" vertex="1" parent="bDfId1kQ4imyyXlbz6ZG-6">
          <mxGeometry x="35" y="33.5" width="50" height="50" as="geometry" />
        </mxCell>
        <mxCell id="bDfId1kQ4imyyXlbz6ZG-9" value="" style="aspect=fixed;pointerEvents=1;shadow=0;dashed=0;html=1;strokeColor=#3A5431;labelPosition=center;verticalLabelPosition=bottom;verticalAlign=top;align=center;fillColor=#6d8764;shape=mxgraph.mscae.enterprise.document;fontColor=#ffffff;" vertex="1" parent="bDfId1kQ4imyyXlbz6ZG-6">
          <mxGeometry x="85" y="60" width="24" height="30" as="geometry" />
        </mxCell>
        <mxCell id="bDfId1kQ4imyyXlbz6ZG-10" value="VM3" style="shape=rect;strokeColor=none;fillColor=#008cff;strokeWidth=1;dashed=0;rounded=1;arcSize=20;fontColor=#ffffff;fontSize=17;spacing=2;spacingTop=-2;align=left;autosize=1;spacingLeft=4;resizeWidth=0;resizeHeight=0;perimeter=none;" vertex="1" parent="bDfId1kQ4imyyXlbz6ZG-6">
          <mxGeometry width="60" height="30" as="geometry" />
        </mxCell>
        <mxCell id="bDfId1kQ4imyyXlbz6ZG-11" value="" style="shape=image;verticalLabelPosition=bottom;verticalAlign=top;imageAspect=0;image=data:image/png,iVBORw0KGgoAAAANSUhEUgAAAG0AAABfCAYAAADiSknwAAABRWlDQ1BJQ0MgUHJvZmlsZQAAKJFjYGASSSwoyGFhYGDIzSspCnJ3UoiIjFJgf8rAxCDEwMXAy8CdmFxc4BgQ4ANUwgCjUcG3awyMIPqyLsgs9UJZ50vu6sKJPV9q4tsvvMVUjwK4UlKLk4H0HyBOSy4oKmFgYEwBspXLSwpA7A4gW6QI6Cggew6InQ5hbwCxkyDsI2A1IUHOQPYNIFsgOSMRaAbjCyBbJwlJPB2JDbUXBHhcXH18FAKMTAzNPQg4l3RQklpRAqKd8wsqizLTM0oUHIGhlKrgmZesp6NgZGBkyMAACnOI6s83wGHJKMaBEEt5ysBgnAsU1ECIZQkwMOz+xsAguBUhpv4Q6K25DAwHAgoSixLhDmD8xlKcZmwEYXNvZ2Bgnfb//+dwBgZ2TQaGv9f///+9/f//v8sYGJhvAfV+AwDni191Ub58XgAAAFZlWElmTU0AKgAAAAgAAYdpAAQAAAABAAAAGgAAAAAAA5KGAAcAAAASAAAARKACAAQAAAABAAAAbaADAAQAAAABAAAAXwAAAABBU0NJSQAAAFNjcmVlbnNob3T9FKyGAAAB1WlUWHRYTUw6Y29tLmFkb2JlLnhtcAAAAAAAPHg6eG1wbWV0YSB4bWxuczp4PSJhZG9iZTpuczptZXRhLyIgeDp4bXB0az0iWE1QIENvcmUgNS40LjAiPgogICA8cmRmOlJERiB4bWxuczpyZGY9Imh0dHA6Ly93d3cudzMub3JnLzE5OTkvMDIvMjItcmRmLXN5bnRheC1ucyMiPgogICAgICA8cmRmOkRlc2NyaXB0aW9uIHJkZjphYm91dD0iIgogICAgICAgICAgICB4bWxuczpleGlmPSJodHRwOi8vbnMuYWRvYmUuY29tL2V4aWYvMS4wLyI+CiAgICAgICAgIDxleGlmOlBpeGVsWERpbWVuc2lvbj4xMDk8L2V4aWY6UGl4ZWxYRGltZW5zaW9uPgogICAgICAgICA8ZXhpZjpVc2VyQ29tbWVudD5TY3JlZW5zaG90PC9leGlmOlVzZXJDb21tZW50PgogICAgICAgICA8ZXhpZjpQaXhlbFlEaW1lbnNpb24+OTU8L2V4aWY6UGl4ZWxZRGltZW5zaW9uPgogICAgICA8L3JkZjpEZXNjcmlwdGlvbj4KICAgPC9yZGY6UkRGPgo8L3g6eG1wbWV0YT4Kv1NaEwAAIAJJREFUeAHtXQeYVdW1/m+duVOBAYYqHRRQREnsDRQRjUYksUUTsYvCg1ieNcbPEqOmqHlG8+KXRH3mafISoxERosSoWLGAQZQOwjC93bn9nvf/+9wzHZiBmTsDzoZzT9t7n73Xv9faa61dxmUxoCfsUxRw71Ol7SmsoUAPaPtgQ+gBrQe0fZAC+2CRezitB7SdU6BeRTXKahJx8IkeJnjwnOBPNHULK8lnulM8OxpPPSFFAVd6VX4BZREKC5bLzbMdvLxyCUCLjO9yIe7iibcSAy6DrO56gkOB9IEm7iE4NS4vqni5fnMlkskkBubmoV9fLzKJi48A+QyULnKeLbk9qXsbRqfYX+9zGkGzUGO58I+t1VhfHEPQ8iJIQNyJCPLdcQzNACb2740xhQECGCOHeYmMhxxpA9TDaw0NNW2gxSn+lm0N4q2KEJIxPzxWHDH2Wx7KwhDfJS3ylhXD0GwfjhpeiIPzPfC72KORMyU5e0DrAtAqYsD/rClBVZSaR9KHGAVgnP2bS7cUk4kkYeE5xs7NnYhiTF4Ozjy0HwpddewGswzHuXkt7oNFtvwao5g2lT8SiyOSoPLh9hm+MYpHK5T3kiVjlh8fVwbxxL++xDubpEnG2MMl+I/g4esNmPgtbaDFExZCPBIuqhbUEO2PS/A1DWFPku8tBOJ+VIYy8NyaHXh6ZRG+irrBV+RMKTQt0zXNZf++Sxtobo8LGV43XEkZZk5oKeNyKCIDiRjC/jiCZMo4xeGyHR488eZ6rK+W7UaTwdFOnGy+Zue0gZbh9SLDI5VeCoe4hV1YK8QOu72IerzwU0HJIIBxdxKZVhhFEeCX727C39ZVIRbr4bRWSNfxj3K9JL7bhYiVi6x4DFFXBsVgS9jU1+mw7B94k2xXwojGeCjuxeLV2/Hoxztg1YQJP0VuCnqbf5WfnaeS6NgfQ9o4zed2ozDDA487ijDFpLwg3jaKORfjSpBKwYyTV9d/VYob39qONaVBBCyyINHxEEI72CK3peDdf+BLG2gi4qSBeTScowhRg5Sd5m4jaEJFIlXMF3d7EHFnoiQcwa/e2YJX1hA0mhM2h6k6DXA1XOn9/hPSBpq4oTATGBCQN9FL0NhfUeS1LYj8BI7cZF/RP0mOC8dieG7lNtz5j02oiHkRp2RM0vZrmEHRUvy27XvdO1Zbqbb3tSC1MynKhvXpxX6KBjJFXltBE1wK4jYPPSfyTObE4wjTZgt5XdhcVYk7X1iF9Rs2sC9ko0iNJJhE++FP2txYNu2SKI658aeVpSgmcFYyakZhGntE4gQmmaRar4N2nQBIUIs0Z14nZaexc1M8YaN4emfxXFsXxVnj8jB78iDkZrrJm34CzEEgusLEc2oq8rrYErSV9sqGxWxs7wujunSjUQeegnUR1NXWmhEIfyATfQPZ7J+Vqcpj5xVzSztmJoxvf4PnTghpBs0iCV1YUWXhlS9LOH7mhZuaZEeBZiVrsSOaify6Ejx44VSMyLZQRcrmC7E4FRX6oEPsEwNGaSHQKQ5uGFGgW40lRDJMonuxMZiJl1/6J95YtgKlJRE2DjkGwsQxjoK8DFx+6SycdMxB8Akk5imngYt5SoR3ZkgvaKZycVSSes9/VopNIdKGYk5ckpBSIrtsLzgtSqK6kxGU1SVRUbIVMw8uxBVHTMTgvgESWtoKuY9xNF7nZVnMWJ3EqaFwDLX0iX76RQ2WvrkSqz5bh5ItxewnlY7cb8Q5rX02AHFTgqLZ6wni5KNH4o4F58HtokJEzhbs+yFobPGs1UeVwKtfFKM2QYWeoBkvx16C5o9HUePOIvGiqKqpxCcVCYxMVuLE8aMw7aChGJbvRk6WG1m0EUX9SCyBsrCFIvo531hbhU+Xv4eidVvgoeNFpI/RsLehlfijG43myrSjx6JPXm88v2QVYgkvuawCV140DRedNYVxnBEJNYPOgy6tnGa3aFaH4idItf2ldXVYVVzdYaBVejzIidWRC7wIxykEy77CymAd/ZVumhpeZNNm8NMr46aR76UTOs7Oqprv6igRB2xYQxBtbgT9o+Ior+n/qPi4ZQMmMLgggD8/soD3Sdz15Bt4efF7lBI+HNAf+M39l6NXTg4rp1rqaKXP5NOOCJ47GToio7bkobZn2h8J6Od1v2w3Piyp4piaxqc1R8RHDTFGESYNkFVPoWxrgzYpzDXfK76CE0e3Xvo11U+ZnoVKjjdAsUhOjoWDjMhRAr6PUpGJRWOooYyM0kbIqapGYOtmuGIc22N+VI+Mhipj3UWPDaUng348iEbCyM7LQxHHmZ574Q2Eo+QsfjcUomitCeGQCaPZKDiAK9D3F05T9RsHTdrZWGHhV19WIidSSxEZRx1yOJ4WtrmvndqjrVEKTPY5BEQEjfLYur0IwYiczezzOA/FDPKQy/zVNYiVFMEvM6INhn6S/ZjbWPg1SHqy2SDYSLxUWugvdbMRTBxVgOvnn83R93x4bbQbV7fDrjuPh9tQRCkDo3MjOCQnjFr2M3V0b3k4ALq3QdzoqANUOzBkYCEyfSQsvyct3scfT3U1rJJiBHTNZ8a+k1KyiwNUNtSs4j7OZCEXJn0kX5J9aDybWn8An2+owE03/Rbr1haZKjgSYm/r0zx9Wvu05h9XvxFy18EbDeDOT7bCV+5HVRYHPMkFe2KnOZwmDtMhOy9B7pU5XkM7q6SozAhPX1k54hVlyKCoFLi26s8Euwm2nin7z0Iv9nMTxo/E6DH9MGxIHgr758Hv95JjfRhZ2Au5AXUAnRO6FDSLHhJXMgNBGqjV1S6cu2wlJmcVwMf7hDRK9v8WTQAZ11IFLJ53ZVy3BhqtQGNOCMSa8iqUf7UNmV9xlEA5Ss5wgpEupMS3HtSf2YBKMrqJxRGHj8Ntc05FYW6QbwhUkv45yXqGJLMz3jlxeyeJyC4FTZUUqTysoIi4tNaDn/59FQbkeJEfyKWopNlL5EKaD0niywg3HhABysNwkznzmufWQDOcpvT0WsQrq7Fx1SpksH/zkcvpnDHBz+vmLjUNDbl4WAI1GWcfxel++X7aZBdh/KhsZHlYcnKVCUZZsS/T8Zsqdjo+1fo3SC8GCinaWCfkujDzkMF4vwL4ooKDnYlaaFBUoHqoKNijAhJPbS+2FAe1+DpqftvKy+Hu1Ztfs3U7w0P8MXOKmp3FfUkBzT42GYpjdIEbP/vxeZg41o8MjlTYbErclEmag2RDF4YklXxVnOLJm2XMgMvG98GnxUEs2lyD7bUhDM3zYVhASgTnSBIAcZ8U6qghfduKLuFWXFxCCUawycHuAJUQ+ikNvfljCK8bsS6Dh280pS8cDCFUUYmxQzx4/P4fIy9T79VgeOhSJoHJJb3Idbl4TNW+vkfx0PBeHcnAZS98jC+jfvSO0zbiW3XsfbOykasBVPoR1ee1RTxGqPpv2bLVTFGQWq9JQxm1VUA5gWMeorlAklqZTMQRDYURDVNDpE80QS47duIwPHz3peibx77L1Ui5YD4N4WsEmtP126POqjiFJV1DcermT31ZhvuXb+I0cnIVvQ5uTvbJJ5flMk6fzADyMuRWIgeS4Eb/Iw1j7PPYCgmmDWiM4BbtqECwhgqDPsa8+IbcGkFsa5EBP8k+MxHmaLoMcHlEDLcpVy/693XjyYeuxIQDBprEFh3F9tfEYeI28bx5ZZ/T9NsNOK1pTUVUkYYmKy5bvAXLt5XwjoYyiW6mJ2hoxhjD6ucsjtHR7iKH+L00nOnG8kl14zM3AayqrERdOcFgEGMIIIMJz56SMgSLtlHsKh/2XRR19HkwDgU2RwKyA0k8+9itmDBcXhpxGBFnHFs8KseuC13cp7WsuMjio20Vp/Jw1oF98NHWMEKuSpJMnNgQ5FP30B0WJdFdJLo7xtYfIdcwrYv2mY/chcpa8oOti8uwFhcqlzhx9dJPqAaie3q6zDlKU8PFgZtsVOPaS2Zi3LBMppc/UhEUWxYfE3dx6PoSNCOA6V84VzxAAp82MBuZ+c5oV9OIGQTDS4J61RtyAYfxRZIDvVRYXKEgYpUVnD+p0XHDeOYscBJ0FkuoJXwkPz0b8oZIcgoS9W5uK4gZUyfjsu9O5VoCPrMCJgMb3pSK37Qoab/rdqDZFGCxyEW9SeSLxxcQnlTf0Yg8EmbiC6l+GkHxEmT1RJ66MNwV1eRWilgmEyiNg81x5DaKU5cZehaQVEIYyZfwoV8giBuvm8X8BKUNksX3/JIRsY3z6qrrbgeaTWM3+zResXSnFGS3Sq0oQdXkHhoCIqcB0BvmSpzKGiottmsqTq4SSDoEnmw9o0EqtgzulDfeTXssyb6wT4YXj//8dhT2Flh2z8EkDAKQsJpr3Xdt6HagGXKIe6gUiEgF2RnISXFEY1LZJrYg40F13U0vR3RHidEIDd9QtHmlxjMP+7CB1ZSAJAGX3mlxUlCMI9pu9oM+DuWcMWMSDjtwAN9wHnQKIJ3stXLdh1TdpyQpRNSNKJg12bzhQDMC7HuaB40QKIibXBwfs4rLDMgSc7vz+bnomjI6KhuDYJeL8LgpozH/2plMzRz4X8K3u4ZuB5ojguyGzoFKsklUk3KaBYk7cZKbfViI6rtXkx5TQDaL2uJWGmGSHaEWN/q49q13IAM3zT0X+T5+x2k1PaC1oNtOH9gcJhVAjlqglMM0QXonmoeYUKWbKVlUikyq+OS15lF2fq+0agfULjNdNfj1rxbgoOF5FJO5BJ7ai5kb0lL52XmG6X3T7ThNfZV2OfBShMVIt3U0jqXYy26TV159jYxsF4dZInQqO9qhBi9bC246d2U8G9OZopSmtAHGcrFZxCtx1cXTMXkkezgnfX029RetZdulz7qdca3pADES2kw0JTc8tnITCc6exxjGVAnIHQILdCZr4o1FIDRMIw2xtRAhOLL5fOwlNdHAzzRRrpXz1kZwxrRDcO0PpttitQlG3a4tN6latyudOMlHIvvpOF62I4F/V3FRPUHLJHf5I1wCTIXDHZSTyw67G9LXOIIml2o6ubgtRpD97ggOH+TGT+Z9h56pEJcLO7ntG+dux2ma06EJNC72ZY9/thV+jqnJnRGq5QYWVTXI5HNxlXQ70doWazuneob8jfQZRlxZdHl5kMHpDacdOgI3X3gEJ5uyhbgCBFF9ZksNtbtC2O1Ak4ejhtR66LMKrODUgAjv4xW19MSHOQnHVu5kdxnE2kBV9Xmaai+/YyEn5XzrqCFYeO5xCGiSjpkXIC1UykcbMusmUdIHmphBWjnpI5pLedMj296ynbpxKh/V9LD/9pNt+M3qMkTqQsit4IpPElyWlWZAJaiSy7uv4CghulaeGdQik5xwo8X4UR4Wr710Tbk5hNOHgN1y3gk4c3I/RhafZkglsUMKPOe2u5/TBxqpGqMXXfBkEgBDcCLICb4E0M0+zI2tnKT46Aer8VfO8y8KejGYjt+w3jOSPeF61+QM0p+osTl5SDKpcHg5twPuMI4cUYCrvj0Nk4b1Mv0XfcUmpE424rvOulu9TR9oZA4fdXaHYJoTI1tLC+cTEQvPlNTh9tc/5+RVao4CKR7hO9lfnCNieLINdKPm6Wez0CqWGD/g5Zz7uVOH4YKTJyCbi+3B2V9hzq/cd3qv1uucNtAsDrfE/WFCwGH7GBVwEnhTDadXr92GF9dVonR7CMVWLQq4SsVLMVdCrixnnPw4YeV2TBKnuwt+gh325iCQ48KcEw7E+UcWoH8+xSFDgmsHxN2ZhvvSVu3dFXmP3qet9HF29qu4H8h6Thr9rLIcb+4oxhLO42dXwxDn5E8q5NS9SzmxMJsO3P7kyjgnESa4UiXJMbJdMZuLaryXfeGBQ3JwysF98N0jx6FvPmeWGONN/Zc9hma2K6SzuL4v2yOSdX2itIEmsTiuTyY21kS4K0EFPqiSuKKg4iI9MhUXRripGiSRzakDIdpUCXJmltaUsX+SF0P9jwY65flIEMSIOxu9rDoM8wVx+uRRmHXSN7g0uKkKaKdqgEh5NNx1PfH3tARpmyMir0aY/yQeub8cwPkCJfQdbquLoYxTBTbX1GE7jeayIFdv1lAcchVLLKLVl/T0cw+SAGVb/5xsDlL6MKB3HoZyl7oCbnpW2IfikFqii0MrMGvT9pQU+066tIFmxJstqWSKmTEuzbmQMV0/XqUXJrDz4aXTj2lmhoK4xNY6mVHKV6gszRgZz40muPFu/w1pA00Dk9ynh+TXP2fqmxy5ChKB8koY5Z/vbSHm2HI+urToYCQn8Tl9iU0sYeJrd3ip97rdz0PaQDN0NAROUVTMY4xkwcYbwzk2R9nPU/EUzfHAm5jKRAsyGnonpydLpW5IuJ9edQhojbFw6PR1IaBT33SeO0R77AEonZA16Rz24sNitfqDF62w3u6GUPbi62lNquVWHVEX5eEc7a2A0x20N12T+HE6cesPIianrhOcSjqTbTqiwk7eXXF2czc91UkhoTXXKed1W8vixG8MmPJpT+gQ8fjW8rfxyqJXUFNbgyGDB2Phwh9yyrYtNJ9++mksX74cw4cPx4033tiesnW7uA7BN23ahAceeABebjx6++23o39/7knRxqDGq3xiXOyxYMECcz1t2jTMnj27jTlwZKTNMVMR1Sakt6mB7SgtxfW33ozXl71OhY4PeBw0bhwWLrie2qDUeBc++fxzvPTqEkyYeDBuYCK11HYHh3HZDhpdtshGZkXzoBmUbQkt09rGSZO0JLiaYkl5BV5YspiDsW4sYEMs4DN9xW6mTVI03KjgTgTmI+v0haVLuO4giYLCAZ0LmjFu+X2V4boF/4G33l1uJtoEApyKlpePwr79UtsxOORtKPdeXaUqrNPOcm4rQK2Vo81p+XG5NJ2DzpqGcT0HlNY+oGepghOzhjQ7i7uL5+3mNMNi/OhLixfj7XeWsxwW5s29FldeeSW3MOIW7OI4seEuKuCIGTPzl4Uzc/B3UkhH9pt2r9oytJa14pl+U99WDEUy5WgttnKxg1MWp881aZz0TqTWziyLHNn1fMzPtMirtXR6piKacu4swq6f7xFomtW75LWl5usDydrz5s6Fj7OAtfuAQj0BzF3LH6dypWVlZiFgL+6Ck82Fgs3Jq3gR+h/LuAJGXvz+/fqlgNFHGvKVYqBvhjnTuKqqitfcAysvl1tEmNmTDRGbXSl/pyxVnINSFwohi7v85HAZlLJvMN/thGGu266urDLlMaPpLNM2bm3BTUpM/H69+8DHfs40m1QDc75RxnLF+LcJcrPoK83SPniKtWeh3aDVcDR56Rv/xPr1G8xkXO0HtWjRIuNPzKV4PPHEE8wWEmZx307K5IA6Z84cfLF2Le69717MPuvsVmOvWLECcy7j8tmCvvjXG2+0GkeEefLJJ/FfTzyBOu6FpW0ssrKzcfkVV+Kayy9rNY0eKl1RURFuueUWvPvhCrN8V4LiqKOOxN1334MDBmkFaEN4hdLllltvtWc8c0o5h/1w3oUXsJHY4vLZp57ClEMPU6utT7SW9bvtttvw0WefGe7ycOHj1KnT8J97oZS1G7QytqzrF17PDcOokrBFr1m3Flddv9DI+IPGjMPU40+kvDaqSn3BdaF2JXFoOmxWSsSJMI9gxN4Lq3FkRwHWKpcY41YzThbjKr0ZxTbpNc7mweov1uO6/5hP8L+wP5Kil2Yl333/T/Dc88/j1488igPHjDHcafukuWiRc/X++3d/wMOPPorKGo7rsTyitRrUUjaO5afNwPyrr8E1BJ6CxTRKzcYMcoKRuEyuNRc5PMqFH9q+Qn19jJWS81qrUFW/ex58CH94+ilu8Mnlw4yjbkC60l9ffBH/fPttIyFTxW1c/d1etxs0r8+PQYMHoai41BYnFGu9+vQxoA2g6quKpyNIBG7fvgPfY0sv53a4OVxEP/mQSThlOiefMixdsgQfkUvVqE7/9pn4x+IlGH7AECPGtN/Ie+9/hAcffACRaBSDBg7AqadMx8QJE7FmzRqaLy9j27ZtuPf++9CPdTp31tlGqhwz5Qg89ODPsJ55PvLrx5iXCz+65VYU9JX+yC2jRo4y4BJT/O6pP+CJxx9nu3bhgKFD8K3Tz8CoESPxwQcfYulrr6FEYnVPA0VEu0IiGbfKqmusi6+4yho8cpR1+jnnWGU1VVZFdZVVEwzaeXH3Z4oo/rOshTffbA1hvOlnftuKcd8jJ3B3AmvaaadZA/nuf//yFxPXecc/HGTpsBh92dtvmziTjzyKz5SjyZyv4tbV8+cx79HWAaPHWK++vsxKML7e6hyJxKx33nnfGjphvDVg9Ehr7sKFlr6pn2AkZB18+OHWoBEjrelnfMvaUV5Rn7OiFBeXWqfOPN0aPGaUdczUk+zvmrT25999/wNrEMs9lN/esnGz/VG9t19boWjEmjB5sjV01Gjrgu//wCqrqmyIw3jbdxRbR5801Ro4ejRpONK69Ud32onb+Fuv/LQVdImPvNwcY1iKqbyU7X1y8tCLf7xO2qMJaeC2OFfJvEURI9a54aabMO2E42kDmlvD7V7OzJoy5TDctPAGGqNUnNgfhajUKP7Hn3yKMm4EQ4bA/Pnz0C8/T4/NQVDRl5xz7z13U6nwYdPmzdjIo7Escxw+0pyN6uUkTuXBhoZyLtL38C953HDDDaRPrhGP5gOM059m0dyrruLVnoX2g8aaOmVUpU0FdOEce1aOdqfaUbwD5WUV8GdmsmM/yWzUUldXBx1BKiPqRyLU9o478kjufOAzovzjjz825fzk008JMPcyZiM7mUqBRK0TJM7IFhgzejSk1ZIFsejVxWbNgEBS5dW3qm9UlbXovknVebPo5UV840J2dhbGH3gQL7Xww/6n9PyPGSef4nyy3ed292n6ojGweVbhVQD7py3fVru0CVQ/SJ1KZvJR7c3F7vOq49QETitBlNMSLr/0crPezBTIyUD5ML8EZ3dFqJTIphJ36QNSvbWkKpuanF8gkV8c41qSRIdMGDfVdy3rjXKxhhqn+VMqisnCK3ut8NHE2SZF5k2oto5pqXZQCpn8+cysBkpVS20kiw2Gn9mj0H7Q9ugznZSIBEtQnG3dtJmcoLWdLYO0TWltY6g9Tp92cpsbRcucus+TLgGN/S1JqSVK5DxygO53FmyPOuMzjlGZmVLB7KfFPNRif3jdfG5Ty51OW8lGU8mzMjJx2owZyMzQVIW2B5WycZBBLII5O+CZd02j1Ee360QeZhU5Q71J0DvjEOBTcbUte5pE2eVNl4Em2dCXHbLry7X4nE7lnYWNG2jEU57kUVmQcHXq369fX+N8jlNlP+n4EzBq7KhWvd+05owiYgNuJObOPrXb504eXu7SKmI7HqDmCceNHUs33yKE6WGp5chHDmeNNRaFSquRAtlyEpuHH66dxtse2guymniz3JvfO6+bPlfP4cgmp3VNmjTJRP7Tn/8PW7bZW8hKS3Omge8oKcEvH36YxEnQhpqQytjON58gjuWIQpT91S233Ypa7kdslAO+bnxWbIfYykDA20Hl4aFT017Jfq2n5p35Mc/sngxsbH3tFGxM/041OIezlOGsc2ab9xG61f720t/tz6SkiXKj1o/f/f73pl4Zfj9mnGrblvUf3s1F+0GrryA/b2rVFJz67+k1b+orTjHl/BUngSYQZ515Js8u48u74PsX0eDkRo9MpxZYWV2Jy+ZejeKyUvodgfMvOM+mb+oDEhGzZ80yu5i+8+F7uPLqa1DHv/SkkKKPfc1fM0M5ldquMEVyI1m6s02nTftUvFRcB7SBQwdhQGGhUV/uvv9+FHOoRqJTYlMVGDJ4IE6hdqg/VHvH3XfhxZdeMX+8SPPNYuwO7nvwQTz7/HMsZxwL5s/nDuOUH0zqeIJMwXfx027xqIo0qu9Os1Y8tWrT6pvFslslZxyPHYMHfnofbrvjDqzfsBFHHXscho8YQc3Lg40bN5jd4zJ8GZg3/1ocOeUbzEwdRKqdUQG59Hvfw+bNm/DMM89gOYeIJn/zmxgxcoTR/BwCZ2dl4LePP4Fs9msijMSUASNVNrYZPdap1WDD0JBG8US0++65h77NK7CBYu6IY481Xo8Lzj0Xl/7gErML643XL8CHKz5AeXkl5tHN99AjQ5BLE2I7fZ2llCAC6LBJk3E+05jAjNvKQe0GTS1K063Veg14pnXZ323tV3LfFEbeVQYBJk6zb5KYffZZeoqf/+JhbN+2neJmtaGgRr4HDhiAS+fMweVzLjHfrE+nxMzU7/HhLo4cF3C31Gf/+EcUkSs/XbmyIX9Gy8/JQpwqPuec24HFcDhe5VLxje+wOWwsp1HtU9zjcK9KrtWnJx53LH7x85/hrnvvRTF3HV/HvrmcoxYeOSopzscMH47XlryKS2iOrF69xjRK2XxKn5ObjeNPOAmPPfyL+j5ahdO7toR2g2YWAXIJ7VR2/r3zeuHAYaNa/Y4KIKXhuCOOMgQ/YOjQJsRUIikY2nngO2efg9OnzzCt9mVOWwjTczFzxmkYNXI4Cnr3VtSWFTI15IpqGsk/nDcPl1z8fXy5fj1eJaHM8EwqRQY1xkz2G4adiJKazqHjJ+LCc89HJo1uyS03d+5p/gF5M86aeTrKaqtxCEfdNehpWp/OPLx0v5w5cyaOOfpobOWK1fV0WI+h75HN2URUuQpy8/H8M09jK/2Yry97Exs2rMOUww7DEd/8BvqxX3TsXSZoV2j/vEfT5NgjsZ4q3m4/zAqqng5ztVo65akIqbNzW985tZLYNhpSuekDCq3EU6fvbDdRH43PtMWFcN9p+RnZWfChbUXqs1YiBeYhGiiXeulhCq53diTnuTjZfmVim+Tmpz7ThkdtuWo/aG3JtSdOp1LAdDed+oWezDucAj2gdThJOz/DHtA6n8Yd/oUe0DqcpJ2fYQ9onU/jDv9CD2gdTtLOz7AHtM6ncYd/oQe0Didp52fYA1rn07jDv/D/PF/WzJb8/+EAAAAASUVORK5CYII=" vertex="1" parent="bDfId1kQ4imyyXlbz6ZG-6">
          <mxGeometry x="100" y="90" width="31" height="30" as="geometry" />
        </mxCell>
        <mxCell id="bDfId1kQ4imyyXlbz6ZG-12" value="" style="group" vertex="1" connectable="0" parent="bDfId1kQ4imyyXlbz6ZG-4">
          <mxGeometry x="20" y="229" width="140" height="130" as="geometry" />
        </mxCell>
        <mxCell id="bDfId1kQ4imyyXlbz6ZG-13" value="" style="outlineConnect=0;dashed=0;verticalLabelPosition=bottom;verticalAlign=top;align=center;html=1;shape=mxgraph.aws3.instance;fillColor=#14EDF5;gradientColor=none;" vertex="1" parent="bDfId1kQ4imyyXlbz6ZG-12">
          <mxGeometry x="20" y="10" width="120" height="120" as="geometry" />
        </mxCell>
        <mxCell id="bDfId1kQ4imyyXlbz6ZG-14" value="" style="aspect=fixed;html=1;points=[];align=center;image;fontSize=12;image=img/lib/mscae/Container_Instances.svg;" vertex="1" parent="bDfId1kQ4imyyXlbz6ZG-12">
          <mxGeometry x="35" y="33.5" width="50" height="50" as="geometry" />
        </mxCell>
        <mxCell id="bDfId1kQ4imyyXlbz6ZG-15" value="" style="aspect=fixed;pointerEvents=1;shadow=0;dashed=0;html=1;strokeColor=#3A5431;labelPosition=center;verticalLabelPosition=bottom;verticalAlign=top;align=center;fillColor=#6d8764;shape=mxgraph.mscae.enterprise.document;fontColor=#ffffff;" vertex="1" parent="bDfId1kQ4imyyXlbz6ZG-12">
          <mxGeometry x="85" y="60" width="24" height="30" as="geometry" />
        </mxCell>
        <mxCell id="bDfId1kQ4imyyXlbz6ZG-16" value="VM3" style="shape=rect;strokeColor=none;fillColor=#008cff;strokeWidth=1;dashed=0;rounded=1;arcSize=20;fontColor=#ffffff;fontSize=17;spacing=2;spacingTop=-2;align=left;autosize=1;spacingLeft=4;resizeWidth=0;resizeHeight=0;perimeter=none;" vertex="1" parent="bDfId1kQ4imyyXlbz6ZG-12">
          <mxGeometry width="60" height="30" as="geometry" />
        </mxCell>
        <mxCell id="bDfId1kQ4imyyXlbz6ZG-17" value="" style="shape=image;verticalLabelPosition=bottom;verticalAlign=top;imageAspect=0;image=data:image/png,iVBORw0KGgoAAAANSUhEUgAAAG0AAABfCAYAAADiSknwAAABRWlDQ1BJQ0MgUHJvZmlsZQAAKJFjYGASSSwoyGFhYGDIzSspCnJ3UoiIjFJgf8rAxCDEwMXAy8CdmFxc4BgQ4ANUwgCjUcG3awyMIPqyLsgs9UJZ50vu6sKJPV9q4tsvvMVUjwK4UlKLk4H0HyBOSy4oKmFgYEwBspXLSwpA7A4gW6QI6Cggew6InQ5hbwCxkyDsI2A1IUHOQPYNIFsgOSMRaAbjCyBbJwlJPB2JDbUXBHhcXH18FAKMTAzNPQg4l3RQklpRAqKd8wsqizLTM0oUHIGhlKrgmZesp6NgZGBkyMAACnOI6s83wGHJKMaBEEt5ysBgnAsU1ECIZQkwMOz+xsAguBUhpv4Q6K25DAwHAgoSixLhDmD8xlKcZmwEYXNvZ2Bgnfb//+dwBgZ2TQaGv9f///+9/f//v8sYGJhvAfV+AwDni191Ub58XgAAAFZlWElmTU0AKgAAAAgAAYdpAAQAAAABAAAAGgAAAAAAA5KGAAcAAAASAAAARKACAAQAAAABAAAAbaADAAQAAAABAAAAXwAAAABBU0NJSQAAAFNjcmVlbnNob3T9FKyGAAAB1WlUWHRYTUw6Y29tLmFkb2JlLnhtcAAAAAAAPHg6eG1wbWV0YSB4bWxuczp4PSJhZG9iZTpuczptZXRhLyIgeDp4bXB0az0iWE1QIENvcmUgNS40LjAiPgogICA8cmRmOlJERiB4bWxuczpyZGY9Imh0dHA6Ly93d3cudzMub3JnLzE5OTkvMDIvMjItcmRmLXN5bnRheC1ucyMiPgogICAgICA8cmRmOkRlc2NyaXB0aW9uIHJkZjphYm91dD0iIgogICAgICAgICAgICB4bWxuczpleGlmPSJodHRwOi8vbnMuYWRvYmUuY29tL2V4aWYvMS4wLyI+CiAgICAgICAgIDxleGlmOlBpeGVsWERpbWVuc2lvbj4xMDk8L2V4aWY6UGl4ZWxYRGltZW5zaW9uPgogICAgICAgICA8ZXhpZjpVc2VyQ29tbWVudD5TY3JlZW5zaG90PC9leGlmOlVzZXJDb21tZW50PgogICAgICAgICA8ZXhpZjpQaXhlbFlEaW1lbnNpb24+OTU8L2V4aWY6UGl4ZWxZRGltZW5zaW9uPgogICAgICA8L3JkZjpEZXNjcmlwdGlvbj4KICAgPC9yZGY6UkRGPgo8L3g6eG1wbWV0YT4Kv1NaEwAAIAJJREFUeAHtXQeYVdW1/m+duVOBAYYqHRRQREnsDRQRjUYksUUTsYvCg1ieNcbPEqOmqHlG8+KXRH3mafISoxERosSoWLGAQZQOwjC93bn9nvf/+9wzHZiBmTsDzoZzT9t7n73Xv9faa61dxmUxoCfsUxRw71Ol7SmsoUAPaPtgQ+gBrQe0fZAC+2CRezitB7SdU6BeRTXKahJx8IkeJnjwnOBPNHULK8lnulM8OxpPPSFFAVd6VX4BZREKC5bLzbMdvLxyCUCLjO9yIe7iibcSAy6DrO56gkOB9IEm7iE4NS4vqni5fnMlkskkBubmoV9fLzKJi48A+QyULnKeLbk9qXsbRqfYX+9zGkGzUGO58I+t1VhfHEPQ8iJIQNyJCPLdcQzNACb2740xhQECGCOHeYmMhxxpA9TDaw0NNW2gxSn+lm0N4q2KEJIxPzxWHDH2Wx7KwhDfJS3ylhXD0GwfjhpeiIPzPfC72KORMyU5e0DrAtAqYsD/rClBVZSaR9KHGAVgnP2bS7cUk4kkYeE5xs7NnYhiTF4Ozjy0HwpddewGswzHuXkt7oNFtvwao5g2lT8SiyOSoPLh9hm+MYpHK5T3kiVjlh8fVwbxxL++xDubpEnG2MMl+I/g4esNmPgtbaDFExZCPBIuqhbUEO2PS/A1DWFPku8tBOJ+VIYy8NyaHXh6ZRG+irrBV+RMKTQt0zXNZf++Sxtobo8LGV43XEkZZk5oKeNyKCIDiRjC/jiCZMo4xeGyHR488eZ6rK+W7UaTwdFOnGy+Zue0gZbh9SLDI5VeCoe4hV1YK8QOu72IerzwU0HJIIBxdxKZVhhFEeCX727C39ZVIRbr4bRWSNfxj3K9JL7bhYiVi6x4DFFXBsVgS9jU1+mw7B94k2xXwojGeCjuxeLV2/Hoxztg1YQJP0VuCnqbf5WfnaeS6NgfQ9o4zed2ozDDA487ijDFpLwg3jaKORfjSpBKwYyTV9d/VYob39qONaVBBCyyINHxEEI72CK3peDdf+BLG2gi4qSBeTScowhRg5Sd5m4jaEJFIlXMF3d7EHFnoiQcwa/e2YJX1hA0mhM2h6k6DXA1XOn9/hPSBpq4oTATGBCQN9FL0NhfUeS1LYj8BI7cZF/RP0mOC8dieG7lNtz5j02oiHkRp2RM0vZrmEHRUvy27XvdO1Zbqbb3tSC1MynKhvXpxX6KBjJFXltBE1wK4jYPPSfyTObE4wjTZgt5XdhcVYk7X1iF9Rs2sC9ko0iNJJhE++FP2txYNu2SKI658aeVpSgmcFYyakZhGntE4gQmmaRar4N2nQBIUIs0Z14nZaexc1M8YaN4emfxXFsXxVnj8jB78iDkZrrJm34CzEEgusLEc2oq8rrYErSV9sqGxWxs7wujunSjUQeegnUR1NXWmhEIfyATfQPZ7J+Vqcpj5xVzSztmJoxvf4PnTghpBs0iCV1YUWXhlS9LOH7mhZuaZEeBZiVrsSOaify6Ejx44VSMyLZQRcrmC7E4FRX6oEPsEwNGaSHQKQ5uGFGgW40lRDJMonuxMZiJl1/6J95YtgKlJRE2DjkGwsQxjoK8DFx+6SycdMxB8Akk5imngYt5SoR3ZkgvaKZycVSSes9/VopNIdKGYk5ckpBSIrtsLzgtSqK6kxGU1SVRUbIVMw8uxBVHTMTgvgESWtoKuY9xNF7nZVnMWJ3EqaFwDLX0iX76RQ2WvrkSqz5bh5ItxewnlY7cb8Q5rX02AHFTgqLZ6wni5KNH4o4F58HtokJEzhbs+yFobPGs1UeVwKtfFKM2QYWeoBkvx16C5o9HUePOIvGiqKqpxCcVCYxMVuLE8aMw7aChGJbvRk6WG1m0EUX9SCyBsrCFIvo531hbhU+Xv4eidVvgoeNFpI/RsLehlfijG43myrSjx6JPXm88v2QVYgkvuawCV140DRedNYVxnBEJNYPOgy6tnGa3aFaH4idItf2ldXVYVVzdYaBVejzIidWRC7wIxykEy77CymAd/ZVumhpeZNNm8NMr46aR76UTOs7Oqprv6igRB2xYQxBtbgT9o+Ior+n/qPi4ZQMmMLgggD8/soD3Sdz15Bt4efF7lBI+HNAf+M39l6NXTg4rp1rqaKXP5NOOCJ47GToio7bkobZn2h8J6Od1v2w3Piyp4piaxqc1R8RHDTFGESYNkFVPoWxrgzYpzDXfK76CE0e3Xvo11U+ZnoVKjjdAsUhOjoWDjMhRAr6PUpGJRWOooYyM0kbIqapGYOtmuGIc22N+VI+Mhipj3UWPDaUng348iEbCyM7LQxHHmZ574Q2Eo+QsfjcUomitCeGQCaPZKDiAK9D3F05T9RsHTdrZWGHhV19WIidSSxEZRx1yOJ4WtrmvndqjrVEKTPY5BEQEjfLYur0IwYiczezzOA/FDPKQy/zVNYiVFMEvM6INhn6S/ZjbWPg1SHqy2SDYSLxUWugvdbMRTBxVgOvnn83R93x4bbQbV7fDrjuPh9tQRCkDo3MjOCQnjFr2M3V0b3k4ALq3QdzoqANUOzBkYCEyfSQsvyct3scfT3U1rJJiBHTNZ8a+k1KyiwNUNtSs4j7OZCEXJn0kX5J9aDybWn8An2+owE03/Rbr1haZKjgSYm/r0zx9Wvu05h9XvxFy18EbDeDOT7bCV+5HVRYHPMkFe2KnOZwmDtMhOy9B7pU5XkM7q6SozAhPX1k54hVlyKCoFLi26s8Euwm2nin7z0Iv9nMTxo/E6DH9MGxIHgr758Hv95JjfRhZ2Au5AXUAnRO6FDSLHhJXMgNBGqjV1S6cu2wlJmcVwMf7hDRK9v8WTQAZ11IFLJ53ZVy3BhqtQGNOCMSa8iqUf7UNmV9xlEA5Ss5wgpEupMS3HtSf2YBKMrqJxRGHj8Ntc05FYW6QbwhUkv45yXqGJLMz3jlxeyeJyC4FTZUUqTysoIi4tNaDn/59FQbkeJEfyKWopNlL5EKaD0niywg3HhABysNwkznzmufWQDOcpvT0WsQrq7Fx1SpksH/zkcvpnDHBz+vmLjUNDbl4WAI1GWcfxel++X7aZBdh/KhsZHlYcnKVCUZZsS/T8Zsqdjo+1fo3SC8GCinaWCfkujDzkMF4vwL4ooKDnYlaaFBUoHqoKNijAhJPbS+2FAe1+DpqftvKy+Hu1Ztfs3U7w0P8MXOKmp3FfUkBzT42GYpjdIEbP/vxeZg41o8MjlTYbErclEmag2RDF4YklXxVnOLJm2XMgMvG98GnxUEs2lyD7bUhDM3zYVhASgTnSBIAcZ8U6qghfduKLuFWXFxCCUawycHuAJUQ+ikNvfljCK8bsS6Dh280pS8cDCFUUYmxQzx4/P4fIy9T79VgeOhSJoHJJb3Idbl4TNW+vkfx0PBeHcnAZS98jC+jfvSO0zbiW3XsfbOykasBVPoR1ee1RTxGqPpv2bLVTFGQWq9JQxm1VUA5gWMeorlAklqZTMQRDYURDVNDpE80QS47duIwPHz3peibx77L1Ui5YD4N4WsEmtP126POqjiFJV1DcermT31ZhvuXb+I0cnIVvQ5uTvbJJ5flMk6fzADyMuRWIgeS4Eb/Iw1j7PPYCgmmDWiM4BbtqECwhgqDPsa8+IbcGkFsa5EBP8k+MxHmaLoMcHlEDLcpVy/693XjyYeuxIQDBprEFh3F9tfEYeI28bx5ZZ/T9NsNOK1pTUVUkYYmKy5bvAXLt5XwjoYyiW6mJ2hoxhjD6ucsjtHR7iKH+L00nOnG8kl14zM3AayqrERdOcFgEGMIIIMJz56SMgSLtlHsKh/2XRR19HkwDgU2RwKyA0k8+9itmDBcXhpxGBFnHFs8KseuC13cp7WsuMjio20Vp/Jw1oF98NHWMEKuSpJMnNgQ5FP30B0WJdFdJLo7xtYfIdcwrYv2mY/chcpa8oOti8uwFhcqlzhx9dJPqAaie3q6zDlKU8PFgZtsVOPaS2Zi3LBMppc/UhEUWxYfE3dx6PoSNCOA6V84VzxAAp82MBuZ+c5oV9OIGQTDS4J61RtyAYfxRZIDvVRYXKEgYpUVnD+p0XHDeOYscBJ0FkuoJXwkPz0b8oZIcgoS9W5uK4gZUyfjsu9O5VoCPrMCJgMb3pSK37Qoab/rdqDZFGCxyEW9SeSLxxcQnlTf0Yg8EmbiC6l+GkHxEmT1RJ66MNwV1eRWilgmEyiNg81x5DaKU5cZehaQVEIYyZfwoV8giBuvm8X8BKUNksX3/JIRsY3z6qrrbgeaTWM3+zResXSnFGS3Sq0oQdXkHhoCIqcB0BvmSpzKGiottmsqTq4SSDoEnmw9o0EqtgzulDfeTXssyb6wT4YXj//8dhT2Flh2z8EkDAKQsJpr3Xdt6HagGXKIe6gUiEgF2RnISXFEY1LZJrYg40F13U0vR3RHidEIDd9QtHmlxjMP+7CB1ZSAJAGX3mlxUlCMI9pu9oM+DuWcMWMSDjtwAN9wHnQKIJ3stXLdh1TdpyQpRNSNKJg12bzhQDMC7HuaB40QKIibXBwfs4rLDMgSc7vz+bnomjI6KhuDYJeL8LgpozH/2plMzRz4X8K3u4ZuB5ojguyGzoFKsklUk3KaBYk7cZKbfViI6rtXkx5TQDaL2uJWGmGSHaEWN/q49q13IAM3zT0X+T5+x2k1PaC1oNtOH9gcJhVAjlqglMM0QXonmoeYUKWbKVlUikyq+OS15lF2fq+0agfULjNdNfj1rxbgoOF5FJO5BJ7ai5kb0lL52XmG6X3T7ThNfZV2OfBShMVIt3U0jqXYy26TV159jYxsF4dZInQqO9qhBi9bC246d2U8G9OZopSmtAHGcrFZxCtx1cXTMXkkezgnfX029RetZdulz7qdca3pADES2kw0JTc8tnITCc6exxjGVAnIHQILdCZr4o1FIDRMIw2xtRAhOLL5fOwlNdHAzzRRrpXz1kZwxrRDcO0PpttitQlG3a4tN6latyudOMlHIvvpOF62I4F/V3FRPUHLJHf5I1wCTIXDHZSTyw67G9LXOIIml2o6ubgtRpD97ggOH+TGT+Z9h56pEJcLO7ntG+dux2ma06EJNC72ZY9/thV+jqnJnRGq5QYWVTXI5HNxlXQ70doWazuneob8jfQZRlxZdHl5kMHpDacdOgI3X3gEJ5uyhbgCBFF9ZksNtbtC2O1Ak4ejhtR66LMKrODUgAjv4xW19MSHOQnHVu5kdxnE2kBV9Xmaai+/YyEn5XzrqCFYeO5xCGiSjpkXIC1UykcbMusmUdIHmphBWjnpI5pLedMj296ynbpxKh/V9LD/9pNt+M3qMkTqQsit4IpPElyWlWZAJaiSy7uv4CghulaeGdQik5xwo8X4UR4Wr710Tbk5hNOHgN1y3gk4c3I/RhafZkglsUMKPOe2u5/TBxqpGqMXXfBkEgBDcCLICb4E0M0+zI2tnKT46Aer8VfO8y8KejGYjt+w3jOSPeF61+QM0p+osTl5SDKpcHg5twPuMI4cUYCrvj0Nk4b1Mv0XfcUmpE424rvOulu9TR9oZA4fdXaHYJoTI1tLC+cTEQvPlNTh9tc/5+RVao4CKR7hO9lfnCNieLINdKPm6Wez0CqWGD/g5Zz7uVOH4YKTJyCbi+3B2V9hzq/cd3qv1uucNtAsDrfE/WFCwGH7GBVwEnhTDadXr92GF9dVonR7CMVWLQq4SsVLMVdCrixnnPw4YeV2TBKnuwt+gh325iCQ48KcEw7E+UcWoH8+xSFDgmsHxN2ZhvvSVu3dFXmP3qet9HF29qu4H8h6Thr9rLIcb+4oxhLO42dXwxDn5E8q5NS9SzmxMJsO3P7kyjgnESa4UiXJMbJdMZuLaryXfeGBQ3JwysF98N0jx6FvPmeWGONN/Zc9hma2K6SzuL4v2yOSdX2itIEmsTiuTyY21kS4K0EFPqiSuKKg4iI9MhUXRripGiSRzakDIdpUCXJmltaUsX+SF0P9jwY65flIEMSIOxu9rDoM8wVx+uRRmHXSN7g0uKkKaKdqgEh5NNx1PfH3tARpmyMir0aY/yQeub8cwPkCJfQdbquLoYxTBTbX1GE7jeayIFdv1lAcchVLLKLVl/T0cw+SAGVb/5xsDlL6MKB3HoZyl7oCbnpW2IfikFqii0MrMGvT9pQU+066tIFmxJstqWSKmTEuzbmQMV0/XqUXJrDz4aXTj2lmhoK4xNY6mVHKV6gszRgZz40muPFu/w1pA00Dk9ynh+TXP2fqmxy5ChKB8koY5Z/vbSHm2HI+urToYCQn8Tl9iU0sYeJrd3ip97rdz0PaQDN0NAROUVTMY4xkwcYbwzk2R9nPU/EUzfHAm5jKRAsyGnonpydLpW5IuJ9edQhojbFw6PR1IaBT33SeO0R77AEonZA16Rz24sNitfqDF62w3u6GUPbi62lNquVWHVEX5eEc7a2A0x20N12T+HE6cesPIianrhOcSjqTbTqiwk7eXXF2czc91UkhoTXXKed1W8vixG8MmPJpT+gQ8fjW8rfxyqJXUFNbgyGDB2Phwh9yyrYtNJ9++mksX74cw4cPx4033tiesnW7uA7BN23ahAceeABebjx6++23o39/7knRxqDGq3xiXOyxYMECcz1t2jTMnj27jTlwZKTNMVMR1Sakt6mB7SgtxfW33ozXl71OhY4PeBw0bhwWLrie2qDUeBc++fxzvPTqEkyYeDBuYCK11HYHh3HZDhpdtshGZkXzoBmUbQkt09rGSZO0JLiaYkl5BV5YspiDsW4sYEMs4DN9xW6mTVI03KjgTgTmI+v0haVLuO4giYLCAZ0LmjFu+X2V4boF/4G33l1uJtoEApyKlpePwr79UtsxOORtKPdeXaUqrNPOcm4rQK2Vo81p+XG5NJ2DzpqGcT0HlNY+oGepghOzhjQ7i7uL5+3mNMNi/OhLixfj7XeWsxwW5s29FldeeSW3MOIW7OI4seEuKuCIGTPzl4Uzc/B3UkhH9pt2r9oytJa14pl+U99WDEUy5WgttnKxg1MWp881aZz0TqTWziyLHNn1fMzPtMirtXR6piKacu4swq6f7xFomtW75LWl5usDydrz5s6Fj7OAtfuAQj0BzF3LH6dypWVlZiFgL+6Ck82Fgs3Jq3gR+h/LuAJGXvz+/fqlgNFHGvKVYqBvhjnTuKqqitfcAysvl1tEmNmTDRGbXSl/pyxVnINSFwohi7v85HAZlLJvMN/thGGu266urDLlMaPpLNM2bm3BTUpM/H69+8DHfs40m1QDc75RxnLF+LcJcrPoK83SPniKtWeh3aDVcDR56Rv/xPr1G8xkXO0HtWjRIuNPzKV4PPHEE8wWEmZx307K5IA6Z84cfLF2Le69717MPuvsVmOvWLECcy7j8tmCvvjXG2+0GkeEefLJJ/FfTzyBOu6FpW0ssrKzcfkVV+Kayy9rNY0eKl1RURFuueUWvPvhCrN8V4LiqKOOxN1334MDBmkFaEN4hdLllltvtWc8c0o5h/1w3oUXsJHY4vLZp57ClEMPU6utT7SW9bvtttvw0WefGe7ycOHj1KnT8J97oZS1G7QytqzrF17PDcOokrBFr1m3Flddv9DI+IPGjMPU40+kvDaqSn3BdaF2JXFoOmxWSsSJMI9gxN4Lq3FkRwHWKpcY41YzThbjKr0ZxTbpNc7mweov1uO6/5hP8L+wP5Kil2Yl333/T/Dc88/j1488igPHjDHcafukuWiRc/X++3d/wMOPPorKGo7rsTyitRrUUjaO5afNwPyrr8E1BJ6CxTRKzcYMcoKRuEyuNRc5PMqFH9q+Qn19jJWS81qrUFW/ex58CH94+ilu8Mnlw4yjbkC60l9ffBH/fPttIyFTxW1c/d1etxs0r8+PQYMHoai41BYnFGu9+vQxoA2g6quKpyNIBG7fvgPfY0sv53a4OVxEP/mQSThlOiefMixdsgQfkUvVqE7/9pn4x+IlGH7AECPGtN/Ie+9/hAcffACRaBSDBg7AqadMx8QJE7FmzRqaLy9j27ZtuPf++9CPdTp31tlGqhwz5Qg89ODPsJ55PvLrx5iXCz+65VYU9JX+yC2jRo4y4BJT/O6pP+CJxx9nu3bhgKFD8K3Tz8CoESPxwQcfYulrr6FEYnVPA0VEu0IiGbfKqmusi6+4yho8cpR1+jnnWGU1VVZFdZVVEwzaeXH3Z4oo/rOshTffbA1hvOlnftuKcd8jJ3B3AmvaaadZA/nuf//yFxPXecc/HGTpsBh92dtvmziTjzyKz5SjyZyv4tbV8+cx79HWAaPHWK++vsxKML7e6hyJxKx33nnfGjphvDVg9Ehr7sKFlr6pn2AkZB18+OHWoBEjrelnfMvaUV5Rn7OiFBeXWqfOPN0aPGaUdczUk+zvmrT25999/wNrEMs9lN/esnGz/VG9t19boWjEmjB5sjV01Gjrgu//wCqrqmyIw3jbdxRbR5801Ro4ejRpONK69Ud32onb+Fuv/LQVdImPvNwcY1iKqbyU7X1y8tCLf7xO2qMJaeC2OFfJvEURI9a54aabMO2E42kDmlvD7V7OzJoy5TDctPAGGqNUnNgfhajUKP7Hn3yKMm4EQ4bA/Pnz0C8/T4/NQVDRl5xz7z13U6nwYdPmzdjIo7Escxw+0pyN6uUkTuXBhoZyLtL38C953HDDDaRPrhGP5gOM059m0dyrruLVnoX2g8aaOmVUpU0FdOEce1aOdqfaUbwD5WUV8GdmsmM/yWzUUldXBx1BKiPqRyLU9o478kjufOAzovzjjz825fzk008JMPcyZiM7mUqBRK0TJM7IFhgzejSk1ZIFsejVxWbNgEBS5dW3qm9UlbXovknVebPo5UV840J2dhbGH3gQL7Xww/6n9PyPGSef4nyy3ed292n6ojGweVbhVQD7py3fVru0CVQ/SJ1KZvJR7c3F7vOq49QETitBlNMSLr/0crPezBTIyUD5ML8EZ3dFqJTIphJ36QNSvbWkKpuanF8gkV8c41qSRIdMGDfVdy3rjXKxhhqn+VMqisnCK3ut8NHE2SZF5k2oto5pqXZQCpn8+cysBkpVS20kiw2Gn9mj0H7Q9ugznZSIBEtQnG3dtJmcoLWdLYO0TWltY6g9Tp92cpsbRcucus+TLgGN/S1JqSVK5DxygO53FmyPOuMzjlGZmVLB7KfFPNRif3jdfG5Ty51OW8lGU8mzMjJx2owZyMzQVIW2B5WycZBBLII5O+CZd02j1Ee360QeZhU5Q71J0DvjEOBTcbUte5pE2eVNl4Em2dCXHbLry7X4nE7lnYWNG2jEU57kUVmQcHXq369fX+N8jlNlP+n4EzBq7KhWvd+05owiYgNuJObOPrXb504eXu7SKmI7HqDmCceNHUs33yKE6WGp5chHDmeNNRaFSquRAtlyEpuHH66dxtse2guymniz3JvfO6+bPlfP4cgmp3VNmjTJRP7Tn/8PW7bZW8hKS3Omge8oKcEvH36YxEnQhpqQytjON58gjuWIQpT91S233Ypa7kdslAO+bnxWbIfYykDA20Hl4aFT017Jfq2n5p35Mc/sngxsbH3tFGxM/041OIezlOGsc2ab9xG61f720t/tz6SkiXKj1o/f/f73pl4Zfj9mnGrblvUf3s1F+0GrryA/b2rVFJz67+k1b+orTjHl/BUngSYQZ515Js8u48u74PsX0eDkRo9MpxZYWV2Jy+ZejeKyUvodgfMvOM+mb+oDEhGzZ80yu5i+8+F7uPLqa1DHv/SkkKKPfc1fM0M5ldquMEVyI1m6s02nTftUvFRcB7SBQwdhQGGhUV/uvv9+FHOoRqJTYlMVGDJ4IE6hdqg/VHvH3XfhxZdeMX+8SPPNYuwO7nvwQTz7/HMsZxwL5s/nDuOUH0zqeIJMwXfx027xqIo0qu9Os1Y8tWrT6pvFslslZxyPHYMHfnofbrvjDqzfsBFHHXscho8YQc3Lg40bN5jd4zJ8GZg3/1ocOeUbzEwdRKqdUQG59Hvfw+bNm/DMM89gOYeIJn/zmxgxcoTR/BwCZ2dl4LePP4Fs9msijMSUASNVNrYZPdap1WDD0JBG8US0++65h77NK7CBYu6IY481Xo8Lzj0Xl/7gErML643XL8CHKz5AeXkl5tHN99AjQ5BLE2I7fZ2llCAC6LBJk3E+05jAjNvKQe0GTS1K063Veg14pnXZ323tV3LfFEbeVQYBJk6zb5KYffZZeoqf/+JhbN+2neJmtaGgRr4HDhiAS+fMweVzLjHfrE+nxMzU7/HhLo4cF3C31Gf/+EcUkSs/XbmyIX9Gy8/JQpwqPuec24HFcDhe5VLxje+wOWwsp1HtU9zjcK9KrtWnJx53LH7x85/hrnvvRTF3HV/HvrmcoxYeOSopzscMH47XlryKS2iOrF69xjRK2XxKn5ObjeNPOAmPPfyL+j5ahdO7toR2g2YWAXIJ7VR2/r3zeuHAYaNa/Y4KIKXhuCOOMgQ/YOjQJsRUIikY2nngO2efg9OnzzCt9mVOWwjTczFzxmkYNXI4Cnr3VtSWFTI15IpqGsk/nDcPl1z8fXy5fj1eJaHM8EwqRQY1xkz2G4adiJKazqHjJ+LCc89HJo1uyS03d+5p/gF5M86aeTrKaqtxCEfdNehpWp/OPLx0v5w5cyaOOfpobOWK1fV0WI+h75HN2URUuQpy8/H8M09jK/2Yry97Exs2rMOUww7DEd/8BvqxX3TsXSZoV2j/vEfT5NgjsZ4q3m4/zAqqng5ztVo65akIqbNzW985tZLYNhpSuekDCq3EU6fvbDdRH43PtMWFcN9p+RnZWfChbUXqs1YiBeYhGiiXeulhCq53diTnuTjZfmVim+Tmpz7ThkdtuWo/aG3JtSdOp1LAdDed+oWezDucAj2gdThJOz/DHtA6n8Yd/oUe0DqcpJ2fYQ9onU/jDv9CD2gdTtLOz7AHtM6ncYd/oQe0Didp52fYA1rn07jDv/D/PF/WzJb8/+EAAAAASUVORK5CYII=" vertex="1" parent="bDfId1kQ4imyyXlbz6ZG-12">
          <mxGeometry x="100" y="90" width="31" height="30" as="geometry" />
        </mxCell>
        <object label="" id="bDfId1kQ4imyyXlbz6ZG-22">
          <mxCell style="shape=mxgraph.mockup.containers.marginRect;rectMarginTop=10;strokeColor=#666666;strokeWidth=1;dashed=1;rounded=1;arcSize=5;recursiveResize=0;" vertex="1" parent="ezOrrWx1QWAtPi0Ws5CB-157">
            <mxGeometry x="380" y="99" width="180" height="170" as="geometry" />
          </mxCell>
        </object>
        <mxCell id="bDfId1kQ4imyyXlbz6ZG-23" value="podmgr log group" style="shape=rect;strokeColor=#C73500;fillColor=#fa6800;strokeWidth=1;dashed=0;rounded=1;arcSize=20;fontColor=#ffffff;fontSize=17;spacing=2;spacingTop=-2;align=left;autosize=1;spacingLeft=4;resizeWidth=0;resizeHeight=0;perimeter=none;" vertex="1" parent="bDfId1kQ4imyyXlbz6ZG-22">
          <mxGeometry x="5" width="160" height="30" as="geometry" />
        </mxCell>
        <mxCell id="ezOrrWx1QWAtPi0Ws5CB-103" value="" style="aspect=fixed;pointerEvents=1;shadow=0;dashed=0;html=1;strokeColor=none;labelPosition=center;verticalLabelPosition=bottom;verticalAlign=top;align=center;fillColor=#00188D;shape=mxgraph.mscae.enterprise.document" parent="bDfId1kQ4imyyXlbz6ZG-22" vertex="1">
          <mxGeometry x="28" y="77.5" width="40" height="50" as="geometry" />
        </mxCell>
        <mxCell id="ezOrrWx1QWAtPi0Ws5CB-104" value="podmgr_falcm_log" style="text;html=1;strokeColor=none;fillColor=none;align=center;verticalAlign=middle;whiteSpace=wrap;rounded=0;" parent="bDfId1kQ4imyyXlbz6ZG-22" vertex="1">
          <mxGeometry x="55" y="50" width="30" height="15" as="geometry" />
        </mxCell>
        <mxCell id="bDfId1kQ4imyyXlbz6ZG-20" style="edgeStyle=orthogonalEdgeStyle;rounded=0;orthogonalLoop=1;jettySize=auto;html=1;entryX=0;entryY=0.5;entryDx=0;entryDy=0;entryPerimeter=0;" edge="1" parent="ezOrrWx1QWAtPi0Ws5CB-157" source="ezOrrWx1QWAtPi0Ws5CB-173" target="bDfId1kQ4imyyXlbz6ZG-22">
          <mxGeometry relative="1" as="geometry">
            <mxPoint x="400" y="184" as="targetPoint" />
          </mxGeometry>
        </mxCell>
        <mxCell id="bDfId1kQ4imyyXlbz6ZG-18" style="edgeStyle=orthogonalEdgeStyle;rounded=0;orthogonalLoop=1;jettySize=auto;html=1;" edge="1" parent="1" source="bDfId1kQ4imyyXlbz6ZG-13">
          <mxGeometry relative="1" as="geometry">
            <mxPoint x="300" y="209" as="targetPoint" />
            <Array as="points">
              <mxPoint x="280" y="384" />
              <mxPoint x="280" y="209" />
            </Array>
          </mxGeometry>
        </mxCell>
        <mxCell id="bDfId1kQ4imyyXlbz6ZG-19" style="edgeStyle=orthogonalEdgeStyle;rounded=0;orthogonalLoop=1;jettySize=auto;html=1;" edge="1" parent="1" source="bDfId1kQ4imyyXlbz6ZG-7">
          <mxGeometry relative="1" as="geometry">
            <mxPoint x="280" y="380" as="targetPoint" />
          </mxGeometry>
        </mxCell>
        <mxCell id="bDfId1kQ4imyyXlbz6ZG-21" style="edgeStyle=orthogonalEdgeStyle;rounded=0;orthogonalLoop=1;jettySize=auto;html=1;exitX=0;exitY=0;exitDx=0;exitDy=0;" edge="1" parent="1">
          <mxGeometry relative="1" as="geometry">
            <mxPoint x="460" y="149" as="sourcePoint" />
            <mxPoint x="460" y="149" as="targetPoint" />
          </mxGeometry>
        </mxCell>
        <mxCell id="bDfId1kQ4imyyXlbz6ZG-38" value="" style="group" vertex="1" connectable="0" parent="1">
          <mxGeometry x="600" y="401" width="511" height="234" as="geometry" />
        </mxCell>
        <mxCell id="ezOrrWx1QWAtPi0Ws5CB-144" value="Policy with read resources in tenancy" style="text;html=1;strokeColor=none;fillColor=none;align=center;verticalAlign=middle;whiteSpace=wrap;rounded=0;dashed=1;" parent="bDfId1kQ4imyyXlbz6ZG-38" vertex="1">
          <mxGeometry x="51" y="158" width="210" height="20" as="geometry" />
        </mxCell>
        <mxCell id="bDfId1kQ4imyyXlbz6ZG-25" value="" style="aspect=fixed;html=1;points=[];align=center;image;fontSize=12;image=img/lib/mscae/Container_Instances.svg;" vertex="1" parent="bDfId1kQ4imyyXlbz6ZG-38">
          <mxGeometry x="2.269999999999982" width="30" height="30" as="geometry" />
        </mxCell>
        <mxCell id="bDfId1kQ4imyyXlbz6ZG-26" value="" style="aspect=fixed;pointerEvents=1;shadow=0;dashed=0;html=1;strokeColor=#3A5431;labelPosition=center;verticalLabelPosition=bottom;verticalAlign=top;align=center;fillColor=#6d8764;shape=mxgraph.mscae.enterprise.document;fontColor=#ffffff;" vertex="1" parent="bDfId1kQ4imyyXlbz6ZG-38">
          <mxGeometry x="2.269999999999982" y="40" width="24" height="30" as="geometry" />
        </mxCell>
        <mxCell id="bDfId1kQ4imyyXlbz6ZG-27" value="" style="shape=image;verticalLabelPosition=bottom;verticalAlign=top;imageAspect=0;image=data:image/png,iVBORw0KGgoAAAANSUhEUgAAAG0AAABfCAYAAADiSknwAAABRWlDQ1BJQ0MgUHJvZmlsZQAAKJFjYGASSSwoyGFhYGDIzSspCnJ3UoiIjFJgf8rAxCDEwMXAy8CdmFxc4BgQ4ANUwgCjUcG3awyMIPqyLsgs9UJZ50vu6sKJPV9q4tsvvMVUjwK4UlKLk4H0HyBOSy4oKmFgYEwBspXLSwpA7A4gW6QI6Cggew6InQ5hbwCxkyDsI2A1IUHOQPYNIFsgOSMRaAbjCyBbJwlJPB2JDbUXBHhcXH18FAKMTAzNPQg4l3RQklpRAqKd8wsqizLTM0oUHIGhlKrgmZesp6NgZGBkyMAACnOI6s83wGHJKMaBEEt5ysBgnAsU1ECIZQkwMOz+xsAguBUhpv4Q6K25DAwHAgoSixLhDmD8xlKcZmwEYXNvZ2Bgnfb//+dwBgZ2TQaGv9f///+9/f//v8sYGJhvAfV+AwDni191Ub58XgAAAFZlWElmTU0AKgAAAAgAAYdpAAQAAAABAAAAGgAAAAAAA5KGAAcAAAASAAAARKACAAQAAAABAAAAbaADAAQAAAABAAAAXwAAAABBU0NJSQAAAFNjcmVlbnNob3T9FKyGAAAB1WlUWHRYTUw6Y29tLmFkb2JlLnhtcAAAAAAAPHg6eG1wbWV0YSB4bWxuczp4PSJhZG9iZTpuczptZXRhLyIgeDp4bXB0az0iWE1QIENvcmUgNS40LjAiPgogICA8cmRmOlJERiB4bWxuczpyZGY9Imh0dHA6Ly93d3cudzMub3JnLzE5OTkvMDIvMjItcmRmLXN5bnRheC1ucyMiPgogICAgICA8cmRmOkRlc2NyaXB0aW9uIHJkZjphYm91dD0iIgogICAgICAgICAgICB4bWxuczpleGlmPSJodHRwOi8vbnMuYWRvYmUuY29tL2V4aWYvMS4wLyI+CiAgICAgICAgIDxleGlmOlBpeGVsWERpbWVuc2lvbj4xMDk8L2V4aWY6UGl4ZWxYRGltZW5zaW9uPgogICAgICAgICA8ZXhpZjpVc2VyQ29tbWVudD5TY3JlZW5zaG90PC9leGlmOlVzZXJDb21tZW50PgogICAgICAgICA8ZXhpZjpQaXhlbFlEaW1lbnNpb24+OTU8L2V4aWY6UGl4ZWxZRGltZW5zaW9uPgogICAgICA8L3JkZjpEZXNjcmlwdGlvbj4KICAgPC9yZGY6UkRGPgo8L3g6eG1wbWV0YT4Kv1NaEwAAIAJJREFUeAHtXQeYVdW1/m+duVOBAYYqHRRQREnsDRQRjUYksUUTsYvCg1ieNcbPEqOmqHlG8+KXRH3mafISoxERosSoWLGAQZQOwjC93bn9nvf/+9wzHZiBmTsDzoZzT9t7n73Xv9faa61dxmUxoCfsUxRw71Ol7SmsoUAPaPtgQ+gBrQe0fZAC+2CRezitB7SdU6BeRTXKahJx8IkeJnjwnOBPNHULK8lnulM8OxpPPSFFAVd6VX4BZREKC5bLzbMdvLxyCUCLjO9yIe7iibcSAy6DrO56gkOB9IEm7iE4NS4vqni5fnMlkskkBubmoV9fLzKJi48A+QyULnKeLbk9qXsbRqfYX+9zGkGzUGO58I+t1VhfHEPQ8iJIQNyJCPLdcQzNACb2740xhQECGCOHeYmMhxxpA9TDaw0NNW2gxSn+lm0N4q2KEJIxPzxWHDH2Wx7KwhDfJS3ylhXD0GwfjhpeiIPzPfC72KORMyU5e0DrAtAqYsD/rClBVZSaR9KHGAVgnP2bS7cUk4kkYeE5xs7NnYhiTF4Ozjy0HwpddewGswzHuXkt7oNFtvwao5g2lT8SiyOSoPLh9hm+MYpHK5T3kiVjlh8fVwbxxL++xDubpEnG2MMl+I/g4esNmPgtbaDFExZCPBIuqhbUEO2PS/A1DWFPku8tBOJ+VIYy8NyaHXh6ZRG+irrBV+RMKTQt0zXNZf++Sxtobo8LGV43XEkZZk5oKeNyKCIDiRjC/jiCZMo4xeGyHR488eZ6rK+W7UaTwdFOnGy+Zue0gZbh9SLDI5VeCoe4hV1YK8QOu72IerzwU0HJIIBxdxKZVhhFEeCX727C39ZVIRbr4bRWSNfxj3K9JL7bhYiVi6x4DFFXBsVgS9jU1+mw7B94k2xXwojGeCjuxeLV2/Hoxztg1YQJP0VuCnqbf5WfnaeS6NgfQ9o4zed2ozDDA487ijDFpLwg3jaKORfjSpBKwYyTV9d/VYob39qONaVBBCyyINHxEEI72CK3peDdf+BLG2gi4qSBeTScowhRg5Sd5m4jaEJFIlXMF3d7EHFnoiQcwa/e2YJX1hA0mhM2h6k6DXA1XOn9/hPSBpq4oTATGBCQN9FL0NhfUeS1LYj8BI7cZF/RP0mOC8dieG7lNtz5j02oiHkRp2RM0vZrmEHRUvy27XvdO1Zbqbb3tSC1MynKhvXpxX6KBjJFXltBE1wK4jYPPSfyTObE4wjTZgt5XdhcVYk7X1iF9Rs2sC9ko0iNJJhE++FP2txYNu2SKI658aeVpSgmcFYyakZhGntE4gQmmaRar4N2nQBIUIs0Z14nZaexc1M8YaN4emfxXFsXxVnj8jB78iDkZrrJm34CzEEgusLEc2oq8rrYErSV9sqGxWxs7wujunSjUQeegnUR1NXWmhEIfyATfQPZ7J+Vqcpj5xVzSztmJoxvf4PnTghpBs0iCV1YUWXhlS9LOH7mhZuaZEeBZiVrsSOaify6Ejx44VSMyLZQRcrmC7E4FRX6oEPsEwNGaSHQKQ5uGFGgW40lRDJMonuxMZiJl1/6J95YtgKlJRE2DjkGwsQxjoK8DFx+6SycdMxB8Akk5imngYt5SoR3ZkgvaKZycVSSes9/VopNIdKGYk5ckpBSIrtsLzgtSqK6kxGU1SVRUbIVMw8uxBVHTMTgvgESWtoKuY9xNF7nZVnMWJ3EqaFwDLX0iX76RQ2WvrkSqz5bh5ItxewnlY7cb8Q5rX02AHFTgqLZ6wni5KNH4o4F58HtokJEzhbs+yFobPGs1UeVwKtfFKM2QYWeoBkvx16C5o9HUePOIvGiqKqpxCcVCYxMVuLE8aMw7aChGJbvRk6WG1m0EUX9SCyBsrCFIvo531hbhU+Xv4eidVvgoeNFpI/RsLehlfijG43myrSjx6JPXm88v2QVYgkvuawCV140DRedNYVxnBEJNYPOgy6tnGa3aFaH4idItf2ldXVYVVzdYaBVejzIidWRC7wIxykEy77CymAd/ZVumhpeZNNm8NMr46aR76UTOs7Oqprv6igRB2xYQxBtbgT9o+Ior+n/qPi4ZQMmMLgggD8/soD3Sdz15Bt4efF7lBI+HNAf+M39l6NXTg4rp1rqaKXP5NOOCJ47GToio7bkobZn2h8J6Od1v2w3Piyp4piaxqc1R8RHDTFGESYNkFVPoWxrgzYpzDXfK76CE0e3Xvo11U+ZnoVKjjdAsUhOjoWDjMhRAr6PUpGJRWOooYyM0kbIqapGYOtmuGIc22N+VI+Mhipj3UWPDaUng348iEbCyM7LQxHHmZ574Q2Eo+QsfjcUomitCeGQCaPZKDiAK9D3F05T9RsHTdrZWGHhV19WIidSSxEZRx1yOJ4WtrmvndqjrVEKTPY5BEQEjfLYur0IwYiczezzOA/FDPKQy/zVNYiVFMEvM6INhn6S/ZjbWPg1SHqy2SDYSLxUWugvdbMRTBxVgOvnn83R93x4bbQbV7fDrjuPh9tQRCkDo3MjOCQnjFr2M3V0b3k4ALq3QdzoqANUOzBkYCEyfSQsvyct3scfT3U1rJJiBHTNZ8a+k1KyiwNUNtSs4j7OZCEXJn0kX5J9aDybWn8An2+owE03/Rbr1haZKjgSYm/r0zx9Wvu05h9XvxFy18EbDeDOT7bCV+5HVRYHPMkFe2KnOZwmDtMhOy9B7pU5XkM7q6SozAhPX1k54hVlyKCoFLi26s8Euwm2nin7z0Iv9nMTxo/E6DH9MGxIHgr758Hv95JjfRhZ2Au5AXUAnRO6FDSLHhJXMgNBGqjV1S6cu2wlJmcVwMf7hDRK9v8WTQAZ11IFLJ53ZVy3BhqtQGNOCMSa8iqUf7UNmV9xlEA5Ss5wgpEupMS3HtSf2YBKMrqJxRGHj8Ntc05FYW6QbwhUkv45yXqGJLMz3jlxeyeJyC4FTZUUqTysoIi4tNaDn/59FQbkeJEfyKWopNlL5EKaD0niywg3HhABysNwkznzmufWQDOcpvT0WsQrq7Fx1SpksH/zkcvpnDHBz+vmLjUNDbl4WAI1GWcfxel++X7aZBdh/KhsZHlYcnKVCUZZsS/T8Zsqdjo+1fo3SC8GCinaWCfkujDzkMF4vwL4ooKDnYlaaFBUoHqoKNijAhJPbS+2FAe1+DpqftvKy+Hu1Ztfs3U7w0P8MXOKmp3FfUkBzT42GYpjdIEbP/vxeZg41o8MjlTYbErclEmag2RDF4YklXxVnOLJm2XMgMvG98GnxUEs2lyD7bUhDM3zYVhASgTnSBIAcZ8U6qghfduKLuFWXFxCCUawycHuAJUQ+ikNvfljCK8bsS6Dh280pS8cDCFUUYmxQzx4/P4fIy9T79VgeOhSJoHJJb3Idbl4TNW+vkfx0PBeHcnAZS98jC+jfvSO0zbiW3XsfbOykasBVPoR1ee1RTxGqPpv2bLVTFGQWq9JQxm1VUA5gWMeorlAklqZTMQRDYURDVNDpE80QS47duIwPHz3peibx77L1Ui5YD4N4WsEmtP126POqjiFJV1DcermT31ZhvuXb+I0cnIVvQ5uTvbJJ5flMk6fzADyMuRWIgeS4Eb/Iw1j7PPYCgmmDWiM4BbtqECwhgqDPsa8+IbcGkFsa5EBP8k+MxHmaLoMcHlEDLcpVy/693XjyYeuxIQDBprEFh3F9tfEYeI28bx5ZZ/T9NsNOK1pTUVUkYYmKy5bvAXLt5XwjoYyiW6mJ2hoxhjD6ucsjtHR7iKH+L00nOnG8kl14zM3AayqrERdOcFgEGMIIIMJz56SMgSLtlHsKh/2XRR19HkwDgU2RwKyA0k8+9itmDBcXhpxGBFnHFs8KseuC13cp7WsuMjio20Vp/Jw1oF98NHWMEKuSpJMnNgQ5FP30B0WJdFdJLo7xtYfIdcwrYv2mY/chcpa8oOti8uwFhcqlzhx9dJPqAaie3q6zDlKU8PFgZtsVOPaS2Zi3LBMppc/UhEUWxYfE3dx6PoSNCOA6V84VzxAAp82MBuZ+c5oV9OIGQTDS4J61RtyAYfxRZIDvVRYXKEgYpUVnD+p0XHDeOYscBJ0FkuoJXwkPz0b8oZIcgoS9W5uK4gZUyfjsu9O5VoCPrMCJgMb3pSK37Qoab/rdqDZFGCxyEW9SeSLxxcQnlTf0Yg8EmbiC6l+GkHxEmT1RJ66MNwV1eRWilgmEyiNg81x5DaKU5cZehaQVEIYyZfwoV8giBuvm8X8BKUNksX3/JIRsY3z6qrrbgeaTWM3+zResXSnFGS3Sq0oQdXkHhoCIqcB0BvmSpzKGiottmsqTq4SSDoEnmw9o0EqtgzulDfeTXssyb6wT4YXj//8dhT2Flh2z8EkDAKQsJpr3Xdt6HagGXKIe6gUiEgF2RnISXFEY1LZJrYg40F13U0vR3RHidEIDd9QtHmlxjMP+7CB1ZSAJAGX3mlxUlCMI9pu9oM+DuWcMWMSDjtwAN9wHnQKIJ3stXLdh1TdpyQpRNSNKJg12bzhQDMC7HuaB40QKIibXBwfs4rLDMgSc7vz+bnomjI6KhuDYJeL8LgpozH/2plMzRz4X8K3u4ZuB5ojguyGzoFKsklUk3KaBYk7cZKbfViI6rtXkx5TQDaL2uJWGmGSHaEWN/q49q13IAM3zT0X+T5+x2k1PaC1oNtOH9gcJhVAjlqglMM0QXonmoeYUKWbKVlUikyq+OS15lF2fq+0agfULjNdNfj1rxbgoOF5FJO5BJ7ai5kb0lL52XmG6X3T7ThNfZV2OfBShMVIt3U0jqXYy26TV159jYxsF4dZInQqO9qhBi9bC246d2U8G9OZopSmtAHGcrFZxCtx1cXTMXkkezgnfX029RetZdulz7qdca3pADES2kw0JTc8tnITCc6exxjGVAnIHQILdCZr4o1FIDRMIw2xtRAhOLL5fOwlNdHAzzRRrpXz1kZwxrRDcO0PpttitQlG3a4tN6latyudOMlHIvvpOF62I4F/V3FRPUHLJHf5I1wCTIXDHZSTyw67G9LXOIIml2o6ubgtRpD97ggOH+TGT+Z9h56pEJcLO7ntG+dux2ma06EJNC72ZY9/thV+jqnJnRGq5QYWVTXI5HNxlXQ70doWazuneob8jfQZRlxZdHl5kMHpDacdOgI3X3gEJ5uyhbgCBFF9ZksNtbtC2O1Ak4ejhtR66LMKrODUgAjv4xW19MSHOQnHVu5kdxnE2kBV9Xmaai+/YyEn5XzrqCFYeO5xCGiSjpkXIC1UykcbMusmUdIHmphBWjnpI5pLedMj296ynbpxKh/V9LD/9pNt+M3qMkTqQsit4IpPElyWlWZAJaiSy7uv4CghulaeGdQik5xwo8X4UR4Wr710Tbk5hNOHgN1y3gk4c3I/RhafZkglsUMKPOe2u5/TBxqpGqMXXfBkEgBDcCLICb4E0M0+zI2tnKT46Aer8VfO8y8KejGYjt+w3jOSPeF61+QM0p+osTl5SDKpcHg5twPuMI4cUYCrvj0Nk4b1Mv0XfcUmpE424rvOulu9TR9oZA4fdXaHYJoTI1tLC+cTEQvPlNTh9tc/5+RVao4CKR7hO9lfnCNieLINdKPm6Wez0CqWGD/g5Zz7uVOH4YKTJyCbi+3B2V9hzq/cd3qv1uucNtAsDrfE/WFCwGH7GBVwEnhTDadXr92GF9dVonR7CMVWLQq4SsVLMVdCrixnnPw4YeV2TBKnuwt+gh325iCQ48KcEw7E+UcWoH8+xSFDgmsHxN2ZhvvSVu3dFXmP3qet9HF29qu4H8h6Thr9rLIcb+4oxhLO42dXwxDn5E8q5NS9SzmxMJsO3P7kyjgnESa4UiXJMbJdMZuLaryXfeGBQ3JwysF98N0jx6FvPmeWGONN/Zc9hma2K6SzuL4v2yOSdX2itIEmsTiuTyY21kS4K0EFPqiSuKKg4iI9MhUXRripGiSRzakDIdpUCXJmltaUsX+SF0P9jwY65flIEMSIOxu9rDoM8wVx+uRRmHXSN7g0uKkKaKdqgEh5NNx1PfH3tARpmyMir0aY/yQeub8cwPkCJfQdbquLoYxTBTbX1GE7jeayIFdv1lAcchVLLKLVl/T0cw+SAGVb/5xsDlL6MKB3HoZyl7oCbnpW2IfikFqii0MrMGvT9pQU+066tIFmxJstqWSKmTEuzbmQMV0/XqUXJrDz4aXTj2lmhoK4xNY6mVHKV6gszRgZz40muPFu/w1pA00Dk9ynh+TXP2fqmxy5ChKB8koY5Z/vbSHm2HI+urToYCQn8Tl9iU0sYeJrd3ip97rdz0PaQDN0NAROUVTMY4xkwcYbwzk2R9nPU/EUzfHAm5jKRAsyGnonpydLpW5IuJ9edQhojbFw6PR1IaBT33SeO0R77AEonZA16Rz24sNitfqDF62w3u6GUPbi62lNquVWHVEX5eEc7a2A0x20N12T+HE6cesPIianrhOcSjqTbTqiwk7eXXF2czc91UkhoTXXKed1W8vixG8MmPJpT+gQ8fjW8rfxyqJXUFNbgyGDB2Phwh9yyrYtNJ9++mksX74cw4cPx4033tiesnW7uA7BN23ahAceeABebjx6++23o39/7knRxqDGq3xiXOyxYMECcz1t2jTMnj27jTlwZKTNMVMR1Sakt6mB7SgtxfW33ozXl71OhY4PeBw0bhwWLrie2qDUeBc++fxzvPTqEkyYeDBuYCK11HYHh3HZDhpdtshGZkXzoBmUbQkt09rGSZO0JLiaYkl5BV5YspiDsW4sYEMs4DN9xW6mTVI03KjgTgTmI+v0haVLuO4giYLCAZ0LmjFu+X2V4boF/4G33l1uJtoEApyKlpePwr79UtsxOORtKPdeXaUqrNPOcm4rQK2Vo81p+XG5NJ2DzpqGcT0HlNY+oGepghOzhjQ7i7uL5+3mNMNi/OhLixfj7XeWsxwW5s29FldeeSW3MOIW7OI4seEuKuCIGTPzl4Uzc/B3UkhH9pt2r9oytJa14pl+U99WDEUy5WgttnKxg1MWp881aZz0TqTWziyLHNn1fMzPtMirtXR6piKacu4swq6f7xFomtW75LWl5usDydrz5s6Fj7OAtfuAQj0BzF3LH6dypWVlZiFgL+6Ck82Fgs3Jq3gR+h/LuAJGXvz+/fqlgNFHGvKVYqBvhjnTuKqqitfcAysvl1tEmNmTDRGbXSl/pyxVnINSFwohi7v85HAZlLJvMN/thGGu266urDLlMaPpLNM2bm3BTUpM/H69+8DHfs40m1QDc75RxnLF+LcJcrPoK83SPniKtWeh3aDVcDR56Rv/xPr1G8xkXO0HtWjRIuNPzKV4PPHEE8wWEmZx307K5IA6Z84cfLF2Le69717MPuvsVmOvWLECcy7j8tmCvvjXG2+0GkeEefLJJ/FfTzyBOu6FpW0ssrKzcfkVV+Kayy9rNY0eKl1RURFuueUWvPvhCrN8V4LiqKOOxN1334MDBmkFaEN4hdLllltvtWc8c0o5h/1w3oUXsJHY4vLZp57ClEMPU6utT7SW9bvtttvw0WefGe7ycOHj1KnT8J97oZS1G7QytqzrF17PDcOokrBFr1m3Flddv9DI+IPGjMPU40+kvDaqSn3BdaF2JXFoOmxWSsSJMI9gxN4Lq3FkRwHWKpcY41YzThbjKr0ZxTbpNc7mweov1uO6/5hP8L+wP5Kil2Yl333/T/Dc88/j1488igPHjDHcafukuWiRc/X++3d/wMOPPorKGo7rsTyitRrUUjaO5afNwPyrr8E1BJ6CxTRKzcYMcoKRuEyuNRc5PMqFH9q+Qn19jJWS81qrUFW/ex58CH94+ilu8Mnlw4yjbkC60l9ffBH/fPttIyFTxW1c/d1etxs0r8+PQYMHoai41BYnFGu9+vQxoA2g6quKpyNIBG7fvgPfY0sv53a4OVxEP/mQSThlOiefMixdsgQfkUvVqE7/9pn4x+IlGH7AECPGtN/Ie+9/hAcffACRaBSDBg7AqadMx8QJE7FmzRqaLy9j27ZtuPf++9CPdTp31tlGqhwz5Qg89ODPsJ55PvLrx5iXCz+65VYU9JX+yC2jRo4y4BJT/O6pP+CJxx9nu3bhgKFD8K3Tz8CoESPxwQcfYulrr6FEYnVPA0VEu0IiGbfKqmusi6+4yho8cpR1+jnnWGU1VVZFdZVVEwzaeXH3Z4oo/rOshTffbA1hvOlnftuKcd8jJ3B3AmvaaadZA/nuf//yFxPXecc/HGTpsBh92dtvmziTjzyKz5SjyZyv4tbV8+cx79HWAaPHWK++vsxKML7e6hyJxKx33nnfGjphvDVg9Ehr7sKFlr6pn2AkZB18+OHWoBEjrelnfMvaUV5Rn7OiFBeXWqfOPN0aPGaUdczUk+zvmrT25999/wNrEMs9lN/esnGz/VG9t19boWjEmjB5sjV01Gjrgu//wCqrqmyIw3jbdxRbR5801Ro4ejRpONK69Ud32onb+Fuv/LQVdImPvNwcY1iKqbyU7X1y8tCLf7xO2qMJaeC2OFfJvEURI9a54aabMO2E42kDmlvD7V7OzJoy5TDctPAGGqNUnNgfhajUKP7Hn3yKMm4EQ4bA/Pnz0C8/T4/NQVDRl5xz7z13U6nwYdPmzdjIo7Escxw+0pyN6uUkTuXBhoZyLtL38C953HDDDaRPrhGP5gOM059m0dyrruLVnoX2g8aaOmVUpU0FdOEce1aOdqfaUbwD5WUV8GdmsmM/yWzUUldXBx1BKiPqRyLU9o478kjufOAzovzjjz825fzk008JMPcyZiM7mUqBRK0TJM7IFhgzejSk1ZIFsejVxWbNgEBS5dW3qm9UlbXovknVebPo5UV840J2dhbGH3gQL7Xww/6n9PyPGSef4nyy3ed292n6ojGweVbhVQD7py3fVru0CVQ/SJ1KZvJR7c3F7vOq49QETitBlNMSLr/0crPezBTIyUD5ML8EZ3dFqJTIphJ36QNSvbWkKpuanF8gkV8c41qSRIdMGDfVdy3rjXKxhhqn+VMqisnCK3ut8NHE2SZF5k2oto5pqXZQCpn8+cysBkpVS20kiw2Gn9mj0H7Q9ugznZSIBEtQnG3dtJmcoLWdLYO0TWltY6g9Tp92cpsbRcucus+TLgGN/S1JqSVK5DxygO53FmyPOuMzjlGZmVLB7KfFPNRif3jdfG5Ty51OW8lGU8mzMjJx2owZyMzQVIW2B5WycZBBLII5O+CZd02j1Ee360QeZhU5Q71J0DvjEOBTcbUte5pE2eVNl4Em2dCXHbLry7X4nE7lnYWNG2jEU57kUVmQcHXq369fX+N8jlNlP+n4EzBq7KhWvd+05owiYgNuJObOPrXb504eXu7SKmI7HqDmCceNHUs33yKE6WGp5chHDmeNNRaFSquRAtlyEpuHH66dxtse2guymniz3JvfO6+bPlfP4cgmp3VNmjTJRP7Tn/8PW7bZW8hKS3Omge8oKcEvH36YxEnQhpqQytjON58gjuWIQpT91S233Ypa7kdslAO+bnxWbIfYykDA20Hl4aFT017Jfq2n5p35Mc/sngxsbH3tFGxM/041OIezlOGsc2ab9xG61f720t/tz6SkiXKj1o/f/f73pl4Zfj9mnGrblvUf3s1F+0GrryA/b2rVFJz67+k1b+orTjHl/BUngSYQZ515Js8u48u74PsX0eDkRo9MpxZYWV2Jy+ZejeKyUvodgfMvOM+mb+oDEhGzZ80yu5i+8+F7uPLqa1DHv/SkkKKPfc1fM0M5ldquMEVyI1m6s02nTftUvFRcB7SBQwdhQGGhUV/uvv9+FHOoRqJTYlMVGDJ4IE6hdqg/VHvH3XfhxZdeMX+8SPPNYuwO7nvwQTz7/HMsZxwL5s/nDuOUH0zqeIJMwXfx027xqIo0qu9Os1Y8tWrT6pvFslslZxyPHYMHfnofbrvjDqzfsBFHHXscho8YQc3Lg40bN5jd4zJ8GZg3/1ocOeUbzEwdRKqdUQG59Hvfw+bNm/DMM89gOYeIJn/zmxgxcoTR/BwCZ2dl4LePP4Fs9msijMSUASNVNrYZPdap1WDD0JBG8US0++65h77NK7CBYu6IY481Xo8Lzj0Xl/7gErML643XL8CHKz5AeXkl5tHN99AjQ5BLE2I7fZ2llCAC6LBJk3E+05jAjNvKQe0GTS1K063Veg14pnXZ323tV3LfFEbeVQYBJk6zb5KYffZZeoqf/+JhbN+2neJmtaGgRr4HDhiAS+fMweVzLjHfrE+nxMzU7/HhLo4cF3C31Gf/+EcUkSs/XbmyIX9Gy8/JQpwqPuec24HFcDhe5VLxje+wOWwsp1HtU9zjcK9KrtWnJx53LH7x85/hrnvvRTF3HV/HvrmcoxYeOSopzscMH47XlryKS2iOrF69xjRK2XxKn5ObjeNPOAmPPfyL+j5ahdO7toR2g2YWAXIJ7VR2/r3zeuHAYaNa/Y4KIKXhuCOOMgQ/YOjQJsRUIikY2nngO2efg9OnzzCt9mVOWwjTczFzxmkYNXI4Cnr3VtSWFTI15IpqGsk/nDcPl1z8fXy5fj1eJaHM8EwqRQY1xkz2G4adiJKazqHjJ+LCc89HJo1uyS03d+5p/gF5M86aeTrKaqtxCEfdNehpWp/OPLx0v5w5cyaOOfpobOWK1fV0WI+h75HN2URUuQpy8/H8M09jK/2Yry97Exs2rMOUww7DEd/8BvqxX3TsXSZoV2j/vEfT5NgjsZ4q3m4/zAqqng5ztVo65akIqbNzW985tZLYNhpSuekDCq3EU6fvbDdRH43PtMWFcN9p+RnZWfChbUXqs1YiBeYhGiiXeulhCq53diTnuTjZfmVim+Tmpz7ThkdtuWo/aG3JtSdOp1LAdDed+oWezDucAj2gdThJOz/DHtA6n8Yd/oUe0DqcpJ2fYQ9onU/jDv9CD2gdTtLOz7AHtM6ncYd/oQe0Didp52fYA1rn07jDv/D/PF/WzJb8/+EAAAAASUVORK5CYII=" vertex="1" parent="bDfId1kQ4imyyXlbz6ZG-38">
          <mxGeometry x="1" y="80" width="31" height="30" as="geometry" />
        </mxCell>
        <mxCell id="bDfId1kQ4imyyXlbz6ZG-28" value="" style="aspect=fixed;pointerEvents=1;shadow=0;dashed=0;html=1;strokeColor=none;labelPosition=center;verticalLabelPosition=bottom;verticalAlign=top;align=center;fillColor=#00188D;shape=mxgraph.mscae.enterprise.document" vertex="1" parent="bDfId1kQ4imyyXlbz6ZG-38">
          <mxGeometry x="1" y="120" width="24" height="30" as="geometry" />
        </mxCell>
        <mxCell id="bDfId1kQ4imyyXlbz6ZG-30" value="" style="verticalLabelPosition=bottom;html=1;verticalAlign=top;align=center;strokeColor=none;fillColor=#00BEF2;shape=mxgraph.azure.access_control;dashed=1;" vertex="1" parent="bDfId1kQ4imyyXlbz6ZG-38">
          <mxGeometry x="2.269999999999982" y="158" width="38.73" height="35" as="geometry" />
        </mxCell>
        <mxCell id="bDfId1kQ4imyyXlbz6ZG-34" value="OCI Log Resource identified by OCID, all log events are mapped to this resource." style="text;html=1;strokeColor=none;fillColor=none;align=center;verticalAlign=middle;whiteSpace=wrap;rounded=0;dashed=1;" vertex="1" parent="bDfId1kQ4imyyXlbz6ZG-38">
          <mxGeometry x="51" y="120" width="440" height="20" as="geometry" />
        </mxCell>
        <mxCell id="bDfId1kQ4imyyXlbz6ZG-35" value="A fluentd based Unified Messaging Agent which is pre-installed in all OCI Computes" style="text;html=1;strokeColor=none;fillColor=none;align=center;verticalAlign=middle;whiteSpace=wrap;rounded=0;dashed=1;" vertex="1" parent="bDfId1kQ4imyyXlbz6ZG-38">
          <mxGeometry x="51" y="80" width="460" height="20" as="geometry" />
        </mxCell>
        <mxCell id="bDfId1kQ4imyyXlbz6ZG-36" value="Podmgr log file written at path&amp;nbsp;&lt;span style=&quot;color: rgb(23 , 43 , 77) ; font-size: 14px ; text-align: left ; background-color: rgb(255 , 255 , 255)&quot;&gt;/root/volumes/podmanager/logs/json/*.log&lt;/span&gt;" style="text;html=1;strokeColor=none;fillColor=none;align=center;verticalAlign=middle;whiteSpace=wrap;rounded=0;dashed=1;" vertex="1" parent="bDfId1kQ4imyyXlbz6ZG-38">
          <mxGeometry x="51" y="40" width="430" height="20" as="geometry" />
        </mxCell>
        <mxCell id="bDfId1kQ4imyyXlbz6ZG-37" value="Podmgr Docker Container" style="text;html=1;strokeColor=none;fillColor=none;align=center;verticalAlign=middle;whiteSpace=wrap;rounded=0;dashed=1;" vertex="1" parent="bDfId1kQ4imyyXlbz6ZG-38">
          <mxGeometry x="51" width="150" height="20" as="geometry" />
        </mxCell>
        <mxCell id="bDfId1kQ4imyyXlbz6ZG-39" value="" style="group" vertex="1" connectable="0" parent="1">
          <mxGeometry x="750" y="240" width="120" height="104" as="geometry" />
        </mxCell>
        <mxCell id="ezOrrWx1QWAtPi0Ws5CB-113" value="" style="verticalLabelPosition=bottom;html=1;fillColor=#A153A0;strokeColor=#ffffff;verticalAlign=top;align=center;points=[[0,0.5,0],[0.125,0.25,0],[0.25,0,0],[0.5,0,0],[0.75,0,0],[0.875,0.25,0],[1,0.5,0],[0.875,0.75,0],[0.75,1,0],[0.5,1,0],[0.125,0.75,0]];pointerEvents=1;shape=mxgraph.cisco_safe.compositeIcon;bgIcon=ellipse;resIcon=mxgraph.cisco_safe.design.users;dashed=1;" parent="bDfId1kQ4imyyXlbz6ZG-39" vertex="1">
          <mxGeometry x="40" y="25" width="50" height="50" as="geometry" />
        </mxCell>
        <mxCell id="ezOrrWx1QWAtPi0Ws5CB-114" value="" style="verticalLabelPosition=bottom;html=1;verticalAlign=top;align=center;strokeColor=none;fillColor=#00BEF2;shape=mxgraph.azure.access_control;dashed=1;" parent="bDfId1kQ4imyyXlbz6ZG-39" vertex="1">
          <mxGeometry x="70" y="54" width="50" height="50" as="geometry" />
        </mxCell>
        <mxCell id="ezOrrWx1QWAtPi0Ws5CB-143" value="FRE DevOps" style="text;html=1;strokeColor=none;fillColor=none;align=center;verticalAlign=middle;whiteSpace=wrap;rounded=0;dashed=1;" parent="bDfId1kQ4imyyXlbz6ZG-39" vertex="1">
          <mxGeometry width="100" height="20" as="geometry" />
        </mxCell>
        <mxCell id="bDfId1kQ4imyyXlbz6ZG-40" value="" style="group" vertex="1" connectable="0" parent="1">
          <mxGeometry x="630" y="40" width="340" height="150" as="geometry" />
        </mxCell>
        <mxCell id="ezOrrWx1QWAtPi0Ws5CB-117" value="" style="rounded=0;whiteSpace=wrap;html=1;dashed=1;fillColor=#dae8fc;strokeColor=#6c8ebf;" parent="bDfId1kQ4imyyXlbz6ZG-40" vertex="1">
          <mxGeometry y="20" width="340" height="130" as="geometry" />
        </mxCell>
        <mxCell id="ezOrrWx1QWAtPi0Ws5CB-110" value="" style="pointerEvents=1;shadow=0;dashed=0;html=1;strokeColor=none;labelPosition=center;verticalLabelPosition=bottom;verticalAlign=top;align=center;fillColor=#505050;shape=mxgraph.mscae.oms.log_search" parent="bDfId1kQ4imyyXlbz6ZG-40" vertex="1">
          <mxGeometry x="57.22000000000003" y="65" width="50" height="50" as="geometry" />
        </mxCell>
        <mxCell id="ezOrrWx1QWAtPi0Ws5CB-111" value="" style="aspect=fixed;pointerEvents=1;shadow=0;dashed=0;html=1;strokeColor=none;labelPosition=center;verticalLabelPosition=bottom;verticalAlign=top;align=center;fillColor=#00188D;shape=mxgraph.mscae.enterprise.filter" parent="bDfId1kQ4imyyXlbz6ZG-40" vertex="1">
          <mxGeometry x="153.05999999999995" y="75" width="44.44" height="40" as="geometry" />
        </mxCell>
        <mxCell id="ezOrrWx1QWAtPi0Ws5CB-112" value="" style="shape=image;html=1;verticalAlign=top;verticalLabelPosition=bottom;labelBackgroundColor=#ffffff;imageAspect=0;aspect=fixed;image=https://cdn4.iconfinder.com/data/icons/banking-and-finance/500/graphs-128.png;fillColor=#FFFFFF;dashed=1;" parent="bDfId1kQ4imyyXlbz6ZG-40" vertex="1">
          <mxGeometry x="260.28" y="71" width="50" height="50" as="geometry" />
        </mxCell>
        <mxCell id="ezOrrWx1QWAtPi0Ws5CB-138" value="View Logs" style="text;html=1;strokeColor=none;fillColor=none;align=center;verticalAlign=middle;whiteSpace=wrap;rounded=0;dashed=1;" parent="bDfId1kQ4imyyXlbz6ZG-40" vertex="1">
          <mxGeometry x="12.220000000000027" y="45" width="95" height="20" as="geometry" />
        </mxCell>
        <mxCell id="ezOrrWx1QWAtPi0Ws5CB-139" value="Filter by Pod Names" style="text;html=1;strokeColor=none;fillColor=none;align=center;verticalAlign=middle;whiteSpace=wrap;rounded=0;dashed=1;" parent="bDfId1kQ4imyyXlbz6ZG-40" vertex="1">
          <mxGeometry x="130" y="50" width="80.28" height="20" as="geometry" />
        </mxCell>
        <mxCell id="ezOrrWx1QWAtPi0Ws5CB-140" value="View Trends" style="text;html=1;strokeColor=none;fillColor=none;align=center;verticalAlign=middle;whiteSpace=wrap;rounded=0;dashed=1;" parent="bDfId1kQ4imyyXlbz6ZG-40" vertex="1">
          <mxGeometry x="240" y="45" width="80.28" height="20" as="geometry" />
        </mxCell>
        <mxCell id="ezOrrWx1QWAtPi0Ws5CB-142" value="Console/SDK" style="text;html=1;strokeColor=none;fillColor=none;align=center;verticalAlign=middle;whiteSpace=wrap;rounded=0;dashed=1;" parent="bDfId1kQ4imyyXlbz6ZG-40" vertex="1">
          <mxGeometry x="10" width="40" height="20" as="geometry" />
        </mxCell>
        <mxCell id="bDfId1kQ4imyyXlbz6ZG-41" style="edgeStyle=orthogonalEdgeStyle;rounded=0;orthogonalLoop=1;jettySize=auto;html=1;entryX=0;entryY=0.5;entryDx=0;entryDy=0;" edge="1" parent="1" source="bDfId1kQ4imyyXlbz6ZG-22" target="ezOrrWx1QWAtPi0Ws5CB-117">
          <mxGeometry relative="1" as="geometry" />
        </mxCell>
        <mxCell id="bDfId1kQ4imyyXlbz6ZG-44" style="edgeStyle=orthogonalEdgeStyle;rounded=0;orthogonalLoop=1;jettySize=auto;html=1;entryX=0.5;entryY=0;entryDx=0;entryDy=0;" edge="1" parent="1" source="ezOrrWx1QWAtPi0Ws5CB-117" target="ezOrrWx1QWAtPi0Ws5CB-143">
          <mxGeometry relative="1" as="geometry" />
        </mxCell>
      </root>
    </mxGraphModel>
  </diagram>
</mxfile>
